<svg id="b8a766e0-f2d2-4beb-b692-6f9a2c135105" data-name="Layer 1" xmlns="http://www.w3.org/2000/svg" xmlns:xlink="http://www.w3.org/1999/xlink" viewBox="0 0 450.4 372.58"><defs><style>.a07e4e02-0c04-4d5c-8f97-4d30aa7138bd,.a317cb67-6d17-4204-9df7-5492f48fd27d,.a54cd64d-4324-48ac-9001-d925325875c4,.aec1c76a-978e-4bf0-b977-06bc756cd67d,.aefba956-587f-4677-973e-194bf7577632,.b5a8097d-9c50-4315-8348-953272a62ffb,.b8c5864a-3777-4e11-b6c6-e95a2c19b38f{stroke:#999;}.a07e4e02-0c04-4d5c-8f97-4d30aa7138bd,.a317cb67-6d17-4204-9df7-5492f48fd27d,.a54cd64d-4324-48ac-9001-d925325875c4,.aec1c76a-978e-4bf0-b977-06bc756cd67d,.aefba956-587f-4677-973e-194bf7577632,.b4eca8e7-5a9f-4de9-a967-3fdee3cc1946,.b5a8097d-9c50-4315-8348-953272a62ffb,.b8c5864a-3777-4e11-b6c6-e95a2c19b38f{stroke-miterlimit:10;}.a54cd64d-4324-48ac-9001-d925325875c4{fill:url(#acca803a-3e26-49d1-8380-89a2ee1b8dd7);}.a07e4e02-0c04-4d5c-8f97-4d30aa7138bd{fill:url(#eef12704-a6c9-4a6c-a9e2-b88ce2376bec);}.aefba956-587f-4677-973e-194bf7577632,.b17e5f3d-f707-496f-a9dd-6fb671a75a81{fill:#666;}.b8c5864a-3777-4e11-b6c6-e95a2c19b38f{fill:url(#fa11f233-afb0-4985-ab3b-1cb87de6cf1a);}.fba8f0c8-91f3-455d-b462-6a4ab99fd3d1{fill:#f7f5f5;}.f4c9370d-c2f5-4865-80c1-31db1029e321{fill:#333;}.b5a8097d-9c50-4315-8348-953272a62ffb{fill:url(#aad16175-97a7-4b28-9c13-53c6ec57f37f);}.a317cb67-6d17-4204-9df7-5492f48fd27d{fill:url(#b4b2e6aa-2e40-4d39-b3d3-e535bed55dd2);}.aec1c76a-978e-4bf0-b977-06bc756cd67d{fill:url(#e5f432d3-b82d-4752-a545-e2ac92bb89bc);}.aa61c681-9279-4b95-9be5-916f00099db9{fill:#ff7bac;}.b322bbea-207a-4676-9097-bf83b0604576{fill:#995ea0;opacity:0.36;}.b4eca8e7-5a9f-4de9-a967-3fdee3cc1946,.bf577044-bf63-4f80-b368-d8bd582eb7d3{fill:none;}.b4eca8e7-5a9f-4de9-a967-3fdee3cc1946{stroke:#ccc;stroke-width:0.5px;}.ae59267f-4179-40cc-a2a1-5e0b10d77eff{fill:#4d4d4d;}.f0c5bd2a-d5fd-4629-acd6-927ccb0a0660{fill:#fcc721;}.e555b139-3f25-45bc-a94c-ae652da5f49b{fill:#fff;}</style><linearGradient id="acca803a-3e26-49d1-8380-89a2ee1b8dd7" x1="454.93" y1="375.24" x2="436.15" y2="402.74" gradientTransform="translate(44.75 -105.41) rotate(15.46)" gradientUnits="userSpaceOnUse"><stop offset="0" stop-color="#666"/><stop offset="0.17" stop-color="#5c5c5c"/><stop offset="0.46" stop-color="#414141"/><stop offset="0.83" stop-color="#161616"/><stop offset="1"/></linearGradient><linearGradient id="eef12704-a6c9-4a6c-a9e2-b88ce2376bec" x1="142.8" y1="354.54" x2="146.65" y2="366.98" gradientTransform="translate(44.75 -105.41) rotate(15.46)" gradientUnits="userSpaceOnUse"><stop offset="0" stop-color="#666"/><stop offset="0.17" stop-color="#606060"/><stop offset="0.39" stop-color="#4f4f4f"/><stop offset="0.65" stop-color="#333"/><stop offset="0.92" stop-color="#0c0c0c"/><stop offset="1"/></linearGradient><linearGradient id="fa11f233-afb0-4985-ab3b-1cb87de6cf1a" x1="317.81" y1="254.64" x2="297.99" y2="457.83" xlink:href="#eef12704-a6c9-4a6c-a9e2-b88ce2376bec"/><linearGradient id="aad16175-97a7-4b28-9c13-53c6ec57f37f" x1="418.05" y1="191.62" x2="574.46" y2="221.98" gradientTransform="translate(44.75 -105.41) rotate(15.46)" gradientUnits="userSpaceOnUse"><stop offset="0" stop-color="#666"/><stop offset="0.2" stop-color="#646464"/><stop offset="0.3" stop-color="#5c5c5c"/><stop offset="0.37" stop-color="#505050"/><stop offset="0.43" stop-color="#3d3d3d"/><stop offset="0.49" stop-color="#252525"/><stop offset="0.54" stop-color="#090909"/><stop offset="0.55"/></linearGradient><linearGradient id="b4b2e6aa-2e40-4d39-b3d3-e535bed55dd2" x1="406.14" y1="404.12" x2="394.13" y2="421.71" gradientTransform="translate(44.75 -105.41) rotate(15.46)" gradientUnits="userSpaceOnUse"><stop offset="0" stop-color="#666"/><stop offset="0.16" stop-color="#606060"/><stop offset="0.39" stop-color="#4e4e4e"/><stop offset="0.66" stop-color="#313131"/><stop offset="0.95" stop-color="#080808"/><stop offset="1"/></linearGradient><linearGradient id="e5f432d3-b82d-4752-a545-e2ac92bb89bc" x1="185.65" y1="383.96" x2="191.22" y2="397.68" xlink:href="#eef12704-a6c9-4a6c-a9e2-b88ce2376bec"/></defs><title>cat</title><path class="a54cd64d-4324-48ac-9001-d925325875c4" d="M427.21,421.4c-2.14,3.64-7.67,3.8-10.07,3.87a17.39,17.39,0,0,1-8.88-2.16,110,110,0,0,1-42.16-30.9s-11.44-13.45-22.74-46.48c-.75-2.2-2.87-8.68-.22-14.42.55-1.19,1.7-3.6,4.23-4.54s5.21.21,6.16.66a13.32,13.32,0,0,1,5.74,5.56c9.68,17.07,10.47,28.29,24.5,45.06a131.09,131.09,0,0,0,40.4,32.31C427.89,413.67,429,418.34,427.21,421.4Z" transform="translate(-29.5 -63.68)"/><path class="a07e4e02-0c04-4d5c-8f97-4d30aa7138bd" d="M136.59,278.73a337.17,337.17,0,0,1-38.47,1.74,337.52,337.52,0,0,1-41.07-3,9.1,9.1,0,0,1-.61,2.09,9.81,9.81,0,0,1-18.61-1.48,11.53,11.53,0,0,1-1.76-.55,9.8,9.8,0,0,1-.51-17.9,10.16,10.16,0,0,1,.73-3.21,9.81,9.81,0,0,1,18.59,1.41,231.43,231.43,0,0,0,39.56,4.41,231.77,231.77,0,0,0,41.82-2.75,8.14,8.14,0,0,1,9.15,8.41l0,2.33A8.63,8.63,0,0,1,136.59,278.73Z" transform="translate(-29.5 -63.68)"/><line class="b17e5f3d-f707-496f-a9dd-6fb671a75a81" x1="84.28" y1="175.1" x2="84.28" y2="175.1"/><path class="b8c5864a-3777-4e11-b6c6-e95a2c19b38f" d="M276.15,366.71c-27.73-5.25-55.87-10.39-88.31-26.81-13-6.58-31.51-16.14-49-34.49-9.72-10.18-14.92-18-17.79-23a105.46,105.46,0,0,1-11.39-30.92c-2.58-12.79-4.45-22.1-.83-33.59A52.44,52.44,0,0,1,123.93,195c12.42-11.36,26.34-13.74,35.13-15.28a84,84,0,0,1,37,1.89,255.34,255.34,0,0,0,64.29,35.2,250.08,250.08,0,0,0,30,9.12c58.21,13.54,81.69-4.9,110,13.76,2,1.32,20.43,13.89,26.71,37.52,9.21,34.65-15.33,64.37-17.73,67.18-13.69,16.06-30.15,22.16-39.17,25.37C343.67,379.19,320.8,375.16,276.15,366.71Z" transform="translate(-29.5 -63.68)"/><path class="aefba956-587f-4677-973e-194bf7577632" d="M97.5,306.91" transform="translate(-29.5 -63.68)"/><polygon class="aefba956-587f-4677-973e-194bf7577632" points="202.78 39.59 183.04 107.97 152.71 57.97 202.78 39.59"/><polygon class="aefba956-587f-4677-973e-194bf7577632" points="40.65 1.06 28.36 71.15 77.56 39.55 40.65 1.06"/><path class="b17e5f3d-f707-496f-a9dd-6fb671a75a81" d="M114.57,89.92" transform="translate(-29.5 -63.68)"/><path class="fba8f0c8-91f3-455d-b462-6a4ab99fd3d1" d="M73,169.58a.33.33,0,0,1,.44,0,.55.55,0,0,1,.17.45.7.7,0,0,1-.72.67.27.27,0,0,1-.21-.11.36.36,0,0,1,0-.23l.1-.74.36-.12" transform="translate(-29.5 -63.68)"/><path class="f4c9370d-c2f5-4865-80c1-31db1029e321" d="M209.8,190.93l-11,37.93c-.85,4.15-3.24,12.36-10.3,16.95-5.3,3.45-12,4.06-19.62,4.75-3,.27-5.28.3-6.19.32-21.38.34-51.42,2.05-51.42,2.05h0l-1.69-8.6L142,120.84l28.19,6.63C199.72,134.45,217.77,163.34,209.8,190.93Z" transform="translate(-29.5 -63.68)"/><path class="aefba956-587f-4677-973e-194bf7577632" d="M201,218.48c-4,13.64-16.33,23.37-31.23,24.48l-11.86.89c-32.13,2.42-35.53,2.74-42.21,1.39-12.28-2.48-22.46-8.78-42.84-21.4q-3.69-2.29-7-4.46C54.21,211.88,48,198.94,49.7,185.92c1.47-11.2,3.37-25.66,5.25-39.89,3.87-29.42,33.61-48.65,64.13-41.47l53.22,12.52c29.55,7,47.6,35.86,39.63,63.45Z" transform="translate(-29.5 -63.68)"/><path class="b5a8097d-9c50-4315-8348-953272a62ffb" d="M470.23,140c4.93.87,7.1,7.21,8,10a21.87,21.87,0,0,1,.7,11.25,146.63,146.63,0,0,1-20.44,62.53s-11.36,19.19-45.29,46.87c-2.27,1.84-8.95,7.16-16.5,6.63-1.57-.11-4.74-.39-6.73-2.9s-1.62-6.14-1.45-7.44a17.78,17.78,0,0,1,4.34-9.1c16.16-18.76,28.77-24.64,43-48.3a175.53,175.53,0,0,0,22.69-61.1C461.09,142.59,466.06,139.24,470.23,140Z" transform="translate(-29.5 -63.68)"/><path class="a317cb67-6d17-4204-9df7-5492f48fd27d" d="M377.14,432.33c-2.28,3.53-7.82,3.46-10.21,3.43a17.33,17.33,0,0,1-8.79-2.53,109.92,109.92,0,0,1-40.82-32.66s-10.86-13.92-20.75-47.39c-.66-2.24-2.5-8.79.39-14.42.59-1.17,1.85-3.52,4.41-4.36s5.2.44,6.13.92a13.29,13.29,0,0,1,5.5,5.8c8.95,17.47,9.27,28.71,22.57,46.05a131.28,131.28,0,0,0,39,34C378.15,424.63,379.07,429.35,377.14,432.33Z" transform="translate(-29.5 -63.68)"/><path class="aec1c76a-978e-4bf0-b977-06bc756cd67d" d="M170.77,316.79a337.93,337.93,0,0,1-38.08,5.77,335.81,335.81,0,0,1-41.15,1.32,9.65,9.65,0,0,1-.38,2.15,9.81,9.81,0,0,1-18.67.48,10.77,10.77,0,0,1-1.81-.37A9.77,9.77,0,0,1,64,314a9.67,9.67,0,0,1,4.25-5.59,10.21,10.21,0,0,1,.39-3.27,9.81,9.81,0,0,1,18.64-.55,231.78,231.78,0,0,0,81.1-6.89,8.13,8.13,0,0,1,10,7.4l.2,2.32A8.64,8.64,0,0,1,170.77,316.79Z" transform="translate(-29.5 -63.68)"/><polygon class="aa61c681-9279-4b95-9be5-916f00099db9" points="165.63 60.62 177.33 67.94 177.4 68 182.78 83.78 196.96 47.77 165.63 60.62"/><polygon class="b322bbea-207a-4676-9097-bf83b0604576" points="165.63 60.62 177.33 67.94 196.96 47.77 165.63 60.62"/><polygon class="aa61c681-9279-4b95-9be5-916f00099db9" points="64.54 37.03 50.8 38.36 50.72 38.38 38.86 50.11 42.23 11.56 64.54 37.03"/><polygon class="b322bbea-207a-4676-9097-bf83b0604576" points="64.54 37.03 50.8 38.36 42.23 11.56 64.54 37.03"/><circle class="f4c9370d-c2f5-4865-80c1-31db1029e321" cx="105.69" cy="111.46" r="15.74"/><circle class="f4c9370d-c2f5-4865-80c1-31db1029e321" cx="78.87" cy="105.15" r="15.74"/><path class="b4eca8e7-5a9f-4de9-a967-3fdee3cc1946" d="M195.57,198.61a32.06,32.06,0,0,0-20.28-11,29.1,29.1,0,0,0-15.82,2.46" transform="translate(-29.5 -63.68)"/><path class="b4eca8e7-5a9f-4de9-a967-3fdee3cc1946" d="M197.82,189.07a32,32,0,0,0-20.28-11,29.08,29.08,0,0,0-15.82,2.46" transform="translate(-29.5 -63.68)"/><path class="ae59267f-4179-40cc-a2a1-5e0b10d77eff" d="M121.52,164.84l-7.64-8.17a1.56,1.56,0,0,1,1.5-2.58l18.12,4.26a1.56,1.56,0,0,1,.18,3l-10.48,3.91A1.55,1.55,0,0,1,121.52,164.84Z" transform="translate(-29.5 -63.68)"/><ellipse class="f0c5bd2a-d5fd-4629-acd6-927ccb0a0660" cx="168.3" cy="151.9" rx="11.41" ry="5.71" transform="translate(-47.61 217.24) rotate(-76.76)"/><path class="e555b139-3f25-45bc-a94c-ae652da5f49b" d="M158.6,158.48" transform="translate(-29.5 -63.68)"/><path class="e555b139-3f25-45bc-a94c-ae652da5f49b" d="M164.92,159.35c-.21.1-.48-.07-.55-.11-.63-.39-.73-1.35-.77-1.85a18.23,18.23,0,0,1,.42-5,34.46,34.46,0,0,1,1.44-4.43,1,1,0,0,1,.37-.59.82.82,0,0,1,.63-.15.89.89,0,0,1,.64,1.07,23.9,23.9,0,0,0-1.44,4.42,23.64,23.64,0,0,0-.53,5.6C165.14,158.47,165.23,159.19,164.92,159.35Z" transform="translate(-29.5 -63.68)"/><circle class="e555b139-3f25-45bc-a94c-ae652da5f49b" cx="137.96" cy="81.44" r="1.11"/><path class="bf577044-bf63-4f80-b368-d8bd582eb7d3" d="M101.28,149.93a.68.68,0,0,1,.6-.44.58.58,0,0,1,.58.44.52.52,0,0,1-.4.59c-.23,0-.45-.1-.68-.14v-.77" transform="translate(-29.5 -63.68)"/><ellipse class="f0c5bd2a-d5fd-4629-acd6-927ccb0a0660" cx="91.86" cy="133.48" rx="11.41" ry="5.71" transform="translate(-88.62 128.63) rotate(-76.76)"/><path class="e555b139-3f25-45bc-a94c-ae652da5f49b" d="M82.16,140.06" transform="translate(-29.5 -63.68)"/><path class="e555b139-3f25-45bc-a94c-ae652da5f49b" d="M88.48,140.93c-.21.11-.48-.06-.55-.1-.63-.39-.73-1.36-.77-1.86a17.6,17.6,0,0,1,.43-5.05A33.09,33.09,0,0,1,89,129.5a1,1,0,0,1,.37-.59.79.79,0,0,1,.63-.16.89.89,0,0,1,.64,1.07,23.34,23.34,0,0,0-2,10C88.7,140.06,88.79,140.77,88.48,140.93Z" transform="translate(-29.5 -63.68)"/><circle class="e555b139-3f25-45bc-a94c-ae652da5f49b" cx="61.52" cy="63.02" r="1.11"/><path class="b4eca8e7-5a9f-4de9-a967-3fdee3cc1946" d="M70,170.38a32,32,0,0,0-20.28-10.95,29.08,29.08,0,0,0-15.82,2.46" transform="translate(-29.5 -63.68)"/><path class="b4eca8e7-5a9f-4de9-a967-3fdee3cc1946" d="M72.27,160.84a32.09,32.09,0,0,0-20.29-11,29.12,29.12,0,0,0-15.82,2.46" transform="translate(-29.5 -63.68)"/></svg>