<svg id="ef671ed8-0204-4eb8-83f1-22eab6e53fd7" data-name="Layer 8" xmlns="http://www.w3.org/2000/svg" viewBox="0 0 464.37 27.51"><defs><style>.a6c89af9-2ed2-4238-84fc-0d4cd18a81c7{fill:#662d91;}</style></defs><path class="a6c89af9-2ed2-4238-84fc-0d4cd18a81c7" d="M18.4,279.5a3.74,3.74,0,0,0-.92,2.66v.73h2.76a1.32,1.32,0,0,1,.92.32,1.12,1.12,0,0,1,.35.87,1,1,0,0,1-.35.81,1.28,1.28,0,0,1-.92.33H17.48v10.57a1.35,1.35,0,0,1-.38,1,1.42,1.42,0,0,1-1.06.38,1.3,1.3,0,0,1-.94-.38,1.32,1.32,0,0,1-.39-1V285.22H13.54a1.31,1.31,0,0,1-.92-.33,1.05,1.05,0,0,1-.35-.81,1.15,1.15,0,0,1,.35-.87,1.36,1.36,0,0,1,.92-.32h1.17v-.46a7.14,7.14,0,0,1,.77-3.38,5.54,5.54,0,0,1,2.17-2.25,6.32,6.32,0,0,1,3.19-.8,1.48,1.48,0,0,1,1,.35,1.17,1.17,0,0,1,.39.9,1.14,1.14,0,0,1-.39.89,1.44,1.44,0,0,1-1,.36A3.13,3.13,0,0,0,18.4,279.5Z" transform="translate(-12.27 -276)"/><path class="a6c89af9-2ed2-4238-84fc-0d4cd18a81c7" d="M43,282.7a1.37,1.37,0,0,1,.38,1v12.09a1.37,1.37,0,0,1-.38,1,1.36,1.36,0,0,1-1,.39,1.37,1.37,0,0,1-1-.39,1.34,1.34,0,0,1-.39-1v-.3a5.88,5.88,0,0,1-2.06,1.34,7.17,7.17,0,0,1-5.91-.34,5.73,5.73,0,0,1-2.33-2.37,7.81,7.81,0,0,1-.84-3.75V283.7a1.38,1.38,0,1,1,2.76,0v6.67a4.41,4.41,0,0,0,1.18,3.32,4.35,4.35,0,0,0,3.13,1.12,4.63,4.63,0,0,0,2.08-.46,3.63,3.63,0,0,0,1.46-1.24,3.12,3.12,0,0,0,.53-1.77V283.7a1.33,1.33,0,0,1,.39-1,1.37,1.37,0,0,1,1-.38A1.35,1.35,0,0,1,43,282.7Z" transform="translate(-12.27 -276)"/><path class="a6c89af9-2ed2-4238-84fc-0d4cd18a81c7" d="M55.14,296.54a4.16,4.16,0,0,1-1.45-1.79,6.18,6.18,0,0,1-.52-2.59v-14.8a1.33,1.33,0,0,1,.38-1,1.35,1.35,0,0,1,1-.38,1.31,1.31,0,0,1,1,.38,1.3,1.3,0,0,1,.38,1v14.8a3.25,3.25,0,0,0,.38,1.65,1.13,1.13,0,0,0,1,.65h.68a1.14,1.14,0,0,1,.88.38,1.44,1.44,0,0,1,.34,1,1.17,1.17,0,0,1-.52,1,2.14,2.14,0,0,1-1.33.38h0A3.66,3.66,0,0,1,55.14,296.54Z" transform="translate(-12.27 -276)"/><path class="a6c89af9-2ed2-4238-84fc-0d4cd18a81c7" d="M68.69,296.54a4.24,4.24,0,0,1-1.45-1.79,6.33,6.33,0,0,1-.51-2.59v-14.8a1.33,1.33,0,0,1,.37-1,1.45,1.45,0,0,1,2,0,1.33,1.33,0,0,1,.38,1v14.8a3.25,3.25,0,0,0,.37,1.65,1.13,1.13,0,0,0,1,.65h.68a1.14,1.14,0,0,1,.88.38,1.39,1.39,0,0,1,.34,1,1.15,1.15,0,0,1-.52,1,2.11,2.11,0,0,1-1.32.38h-.06A3.66,3.66,0,0,1,68.69,296.54Z" transform="translate(-12.27 -276)"/><path class="a6c89af9-2ed2-4238-84fc-0d4cd18a81c7" d="M96.11,296.71a6.64,6.64,0,0,1-2.55-1.49,1.11,1.11,0,0,1-.35-.84,1.27,1.27,0,0,1,.54-1.06,1.66,1.66,0,0,1,1-.38,1.49,1.49,0,0,1,1,.49,4.18,4.18,0,0,0,1.54,1,5.78,5.78,0,0,0,2.2.42,4.71,4.71,0,0,0,2.4-.51,1.57,1.57,0,0,0,.85-1.39,1.63,1.63,0,0,0-.84-1.39,8.41,8.41,0,0,0-2.85-.94c-3.47-.67-5.2-2.09-5.2-4.28a3.31,3.31,0,0,1,.79-2.25,4.72,4.72,0,0,1,2.06-1.38,7.83,7.83,0,0,1,2.71-.46,8.26,8.26,0,0,1,3.15.57,5.31,5.31,0,0,1,2.21,1.57,1.37,1.37,0,0,1,.36.87,1.13,1.13,0,0,1-.46.84,1.31,1.31,0,0,1-.76.21,1.88,1.88,0,0,1-1.28-.51,4,4,0,0,0-1.43-.88,5.85,5.85,0,0,0-1.85-.26,4.35,4.35,0,0,0-2,.42,1.28,1.28,0,0,0-.8,1.18,1.51,1.51,0,0,0,.27.91,2.34,2.34,0,0,0,1,.67,12.09,12.09,0,0,0,2.19.61,9.41,9.41,0,0,1,4.19,1.66,3.42,3.42,0,0,1,1.23,2.73,4,4,0,0,1-.67,2.27,4.56,4.56,0,0,1-2,1.6,7.67,7.67,0,0,1-3.15.58A10.39,10.39,0,0,1,96.11,296.71Z" transform="translate(-12.27 -276)"/><path class="a6c89af9-2ed2-4238-84fc-0d4cd18a81c7" d="M121.46,294.84a1.39,1.39,0,0,1,.34,1,1.24,1.24,0,0,1-.44,1,1.71,1.71,0,0,1-1.16.38h-.48a4.47,4.47,0,0,1-2.43-.69,4.8,4.8,0,0,1-1.72-1.88,5.67,5.67,0,0,1-.62-2.69v-6.69H113.7a1.28,1.28,0,0,1-.92-.33,1,1,0,0,1-.36-.81,1.12,1.12,0,0,1,.36-.87,1.32,1.32,0,0,1,.92-.32H115V279a1.29,1.29,0,0,1,.38-1,1.31,1.31,0,0,1,1-.38,1.35,1.35,0,0,1,1,.38,1.33,1.33,0,0,1,.38,1v3.91H120a1.32,1.32,0,0,1,.92.32,1.12,1.12,0,0,1,.35.87,1,1,0,0,1-.35.81,1.28,1.28,0,0,1-.92.33h-2.3v6.69a2.77,2.77,0,0,0,.59,1.82,1.83,1.83,0,0,0,1.47.73h.92A1.06,1.06,0,0,1,121.46,294.84Z" transform="translate(-12.27 -276)"/><path class="a6c89af9-2ed2-4238-84fc-0d4cd18a81c7" d="M141.12,283.23a7.26,7.26,0,0,1,2.68,2.71,7.51,7.51,0,0,1,1,3.83v6.05a1.33,1.33,0,0,1-1.38,1.38,1.35,1.35,0,0,1-1.39-1.38v-1a6.57,6.57,0,0,1-2.3,1.82,6.72,6.72,0,0,1-2.93.65,6.5,6.5,0,0,1-3.53-1,6.9,6.9,0,0,1-2.5-2.69,8.18,8.18,0,0,1-.91-3.84,7.61,7.61,0,0,1,1-3.83,7.1,7.1,0,0,1,2.7-2.71,7.46,7.46,0,0,1,3.8-1A7.37,7.37,0,0,1,141.12,283.23Zm-1.33,10.95a4.78,4.78,0,0,0,1.72-1.82,5.42,5.42,0,0,0,.62-2.59,5.49,5.49,0,0,0-.62-2.6,4.73,4.73,0,0,0-8.36,0,5.27,5.27,0,0,0-.64,2.6,5.21,5.21,0,0,0,.64,2.59,4.8,4.8,0,0,0,1.73,1.82,4.9,4.9,0,0,0,4.91,0Z" transform="translate(-12.27 -276)"/><path class="a6c89af9-2ed2-4238-84fc-0d4cd18a81c7" d="M157.2,296.3a7,7,0,0,1-2.67-2.69,7.76,7.76,0,0,1-1-3.84,8,8,0,0,1,.94-3.89,6.73,6.73,0,0,1,2.61-2.68,7.53,7.53,0,0,1,3.8-1,6.72,6.72,0,0,1,5.31,2.44,1,1,0,0,1,.27.7,1.18,1.18,0,0,1-.6,1,1,1,0,0,1-.62.19,1.37,1.37,0,0,1-1.06-.48,4.36,4.36,0,0,0-1.47-1.08,4.81,4.81,0,0,0-1.83-.33,4.41,4.41,0,0,0-3.39,1.39,5.21,5.21,0,0,0-1.3,3.7,5.48,5.48,0,0,0,.61,2.62,4.41,4.41,0,0,0,1.7,1.8,4.89,4.89,0,0,0,2.51.65,4.51,4.51,0,0,0,3-.95,1.74,1.74,0,0,1,1-.38,1.11,1.11,0,0,1,.7.25,1.27,1.27,0,0,1,.52,1,1,1,0,0,1-.33.73,6.9,6.9,0,0,1-4.88,1.82A7.53,7.53,0,0,1,157.2,296.3Z" transform="translate(-12.27 -276)"/><path class="a6c89af9-2ed2-4238-84fc-0d4cd18a81c7" d="M187.53,296a1.27,1.27,0,0,1-.48,1,1.42,1.42,0,0,1-.87.32,1.19,1.19,0,0,1-1-.49l-5.15-6.37-1.35,1.2v4.14a1.34,1.34,0,0,1-.37,1,1.33,1.33,0,0,1-2.29-1V277.33a1.36,1.36,0,0,1,2.29-1,1.3,1.3,0,0,1,.37,1v11l6.58-5.88a1.18,1.18,0,0,1,.84-.35,1.15,1.15,0,0,1,.93.43,1.18,1.18,0,0,1,.35.84,1.12,1.12,0,0,1-.44.92l-5,4.45,5.26,6.45A1.2,1.2,0,0,1,187.53,296Z" transform="translate(-12.27 -276)"/><path class="a6c89af9-2ed2-4238-84fc-0d4cd18a81c7" d="M226.85,282.64a1.13,1.13,0,0,1,.28.82,2.13,2.13,0,0,1-.13.78l-4,12a1.36,1.36,0,0,1-.49.63,1.27,1.27,0,0,1-.79.26,1.34,1.34,0,0,1-.82-.26,1.13,1.13,0,0,1-.48-.63l-2.65-9.84-2.8,9.84a1.26,1.26,0,0,1-.5.63,1.3,1.3,0,0,1-.8.26,1.43,1.43,0,0,1-1.3-.89l-4-12a2.63,2.63,0,0,1-.11-.76,1,1,0,0,1,1.14-1.14,1.23,1.23,0,0,1,.85.3,2.1,2.1,0,0,1,.56.95l2.93,9.14,2.76-9.35a1.48,1.48,0,0,1,.48-.75,1.31,1.31,0,0,1,.88-.29,1.29,1.29,0,0,1,.85.29,1.55,1.55,0,0,1,.48.75l2.43,9.54,3-9.33c.25-.83.72-1.25,1.41-1.25A1.11,1.11,0,0,1,226.85,282.64Z" transform="translate(-12.27 -276)"/><path class="a6c89af9-2ed2-4238-84fc-0d4cd18a81c7" d="M247.82,290.38a1.25,1.25,0,0,1-.9.34h-10.3a4.74,4.74,0,0,0,1.72,3.06,5.31,5.31,0,0,0,3.49,1.17,5.25,5.25,0,0,0,1.69-.3,5,5,0,0,0,1.45-.73,1.39,1.39,0,0,1,.89-.3,1.18,1.18,0,0,1,.82.27,1.2,1.2,0,0,1,.49.92,1,1,0,0,1-.44.82,7.48,7.48,0,0,1-2.29,1.19,8.08,8.08,0,0,1-2.61.46,8.2,8.2,0,0,1-4-1,7,7,0,0,1-2.75-2.67,7.59,7.59,0,0,1-1-3.88,8,8,0,0,1,.94-3.89,6.77,6.77,0,0,1,2.6-2.68,7.43,7.43,0,0,1,3.78-1,6.74,6.74,0,0,1,3.6.92,6,6,0,0,1,2.33,2.57,8.43,8.43,0,0,1,.82,3.8A1.14,1.14,0,0,1,247.82,290.38Zm-9.61-4.73a4.87,4.87,0,0,0-1.56,2.9h9a4.81,4.81,0,0,0-1.35-2.9,4,4,0,0,0-2.9-1.08A4.69,4.69,0,0,0,238.21,285.65Z" transform="translate(-12.27 -276)"/><path class="a6c89af9-2ed2-4238-84fc-0d4cd18a81c7" d="M268.65,283.21a6.91,6.91,0,0,1,2.49,2.7,8.06,8.06,0,0,1,.91,3.84,7.66,7.66,0,0,1-1,3.83,7.14,7.14,0,0,1-2.69,2.71,7.52,7.52,0,0,1-3.81,1,7.33,7.33,0,0,1-6.47-3.7,7.57,7.57,0,0,1-1-3.83V277.38a1.3,1.3,0,0,1,.4-1,1.38,1.38,0,0,1,2.37,1v7.32a6.66,6.66,0,0,1,2.3-1.81,6.94,6.94,0,0,1,6.47.32Zm-1.63,11a4.83,4.83,0,0,0,1.73-1.83,5.3,5.3,0,0,0,.64-2.6,5.18,5.18,0,0,0-.64-2.59,4.73,4.73,0,0,0-1.73-1.82,4.9,4.9,0,0,0-4.91,0,4.71,4.71,0,0,0-1.72,1.82,5.39,5.39,0,0,0-.62,2.59,5.51,5.51,0,0,0,.62,2.6,4.81,4.81,0,0,0,1.72,1.83,4.9,4.9,0,0,0,4.91,0Z" transform="translate(-12.27 -276)"/><path class="a6c89af9-2ed2-4238-84fc-0d4cd18a81c7" d="M308.75,276.38a1.37,1.37,0,0,1,.38,1v12.37a7.57,7.57,0,0,1-1,3.83,7.3,7.3,0,0,1-6.47,3.7,7.46,7.46,0,0,1-3.8-1,7.1,7.1,0,0,1-2.7-2.71,7.66,7.66,0,0,1-1-3.83,8.18,8.18,0,0,1,.91-3.84,6.91,6.91,0,0,1,2.49-2.7,6.78,6.78,0,0,1,8.77,1.49v-7.32a1.3,1.3,0,0,1,.4-1,1.49,1.49,0,0,1,2,0Zm-4.62,17.8a4.81,4.81,0,0,0,1.72-1.83,5.51,5.51,0,0,0,.62-2.6,5.39,5.39,0,0,0-.62-2.59,4.64,4.64,0,0,0-4.18-2.48,4.66,4.66,0,0,0-2.45.66,4.73,4.73,0,0,0-1.73,1.82,5.18,5.18,0,0,0-.64,2.59,5.3,5.3,0,0,0,.64,2.6,4.83,4.83,0,0,0,1.73,1.83,4.9,4.9,0,0,0,4.91,0Z" transform="translate(-12.27 -276)"/><path class="a6c89af9-2ed2-4238-84fc-0d4cd18a81c7" d="M332.38,290.38a1.21,1.21,0,0,1-.89.34h-10.3a4.74,4.74,0,0,0,1.72,3.06,5.49,5.49,0,0,0,5.18.87,5.17,5.17,0,0,0,1.45-.73,1.39,1.39,0,0,1,.89-.3,1.18,1.18,0,0,1,.82.27,1.19,1.19,0,0,1,.48.92,1,1,0,0,1-.43.82,7.48,7.48,0,0,1-2.29,1.19,8.29,8.29,0,0,1-6.6-.5,6.93,6.93,0,0,1-2.75-2.67,7.59,7.59,0,0,1-1-3.88,8.07,8.07,0,0,1,.93-3.89,6.8,6.8,0,0,1,2.61-2.68,7.43,7.43,0,0,1,3.78-1,6.74,6.74,0,0,1,3.6.92,6,6,0,0,1,2.33,2.57,8.43,8.43,0,0,1,.82,3.8A1.11,1.11,0,0,1,332.38,290.38Zm-9.6-4.73a4.81,4.81,0,0,0-1.56,2.9h9a4.81,4.81,0,0,0-1.35-2.9,4,4,0,0,0-2.9-1.08A4.69,4.69,0,0,0,322.78,285.65Z" transform="translate(-12.27 -276)"/><path class="a6c89af9-2ed2-4238-84fc-0d4cd18a81c7" d="M353.09,283a1.1,1.1,0,0,1,.19.64,1.13,1.13,0,0,1-.13.51l-5.75,12.12a1.31,1.31,0,0,1-1.25.89,1.25,1.25,0,0,1-.75-.2,1.76,1.76,0,0,1-.55-.69l-5.74-12.12a1,1,0,0,1-.11-.48,1.19,1.19,0,0,1,.76-1.11,1,1,0,0,1,.57-.14,1.2,1.2,0,0,1,.62.18,1.12,1.12,0,0,1,.46.5l4.72,10.16,4.66-10.16a1.14,1.14,0,0,1,.47-.5,1.32,1.32,0,0,1,.67-.18,1.26,1.26,0,0,1,.62.14A1.14,1.14,0,0,1,353.09,283Z" transform="translate(-12.27 -276)"/><path class="a6c89af9-2ed2-4238-84fc-0d4cd18a81c7" d="M373.83,290.38a1.25,1.25,0,0,1-.9.34h-10.3a4.75,4.75,0,0,0,1.73,3.06,5.27,5.27,0,0,0,3.48,1.17,5.2,5.2,0,0,0,1.69-.3,5,5,0,0,0,1.45-.73,1.42,1.42,0,0,1,.9-.3,1.28,1.28,0,0,1,1.3,1.19,1,1,0,0,1-.44.82,7.37,7.37,0,0,1-2.29,1.19,8.08,8.08,0,0,1-2.61.46,8.23,8.23,0,0,1-4-1,7,7,0,0,1-2.75-2.67,7.59,7.59,0,0,1-1-3.88,8,8,0,0,1,.94-3.89,6.77,6.77,0,0,1,2.6-2.68,7.43,7.43,0,0,1,3.78-1,6.8,6.8,0,0,1,3.61.92,6,6,0,0,1,2.33,2.57,8.56,8.56,0,0,1,.81,3.8A1.14,1.14,0,0,1,373.83,290.38Zm-9.61-4.73a4.92,4.92,0,0,0-1.56,2.9h9a4.88,4.88,0,0,0-1.36-2.9,4,4,0,0,0-2.9-1.08A4.69,4.69,0,0,0,364.22,285.65Z" transform="translate(-12.27 -276)"/><path class="a6c89af9-2ed2-4238-84fc-0d4cd18a81c7" d="M384.55,296.54a4.24,4.24,0,0,1-1.45-1.79,6.34,6.34,0,0,1-.52-2.59v-14.8a1.33,1.33,0,0,1,.38-1,1.45,1.45,0,0,1,2,0,1.33,1.33,0,0,1,.37,1v14.8a3.25,3.25,0,0,0,.38,1.65,1.13,1.13,0,0,0,1,.65h.68a1.14,1.14,0,0,1,.88.38,1.44,1.44,0,0,1,.34,1,1.15,1.15,0,0,1-.52,1,2.12,2.12,0,0,1-1.33.38h-.05A3.66,3.66,0,0,1,384.55,296.54Z" transform="translate(-12.27 -276)"/><path class="a6c89af9-2ed2-4238-84fc-0d4cd18a81c7" d="M398.71,296.32a6.83,6.83,0,0,1-2.66-2.67,8.52,8.52,0,0,1,0-7.78,6.83,6.83,0,0,1,2.66-2.67,7.78,7.78,0,0,1,3.88-1,7.64,7.64,0,0,1,3.83,1,6.9,6.9,0,0,1,2.66,2.67,8.4,8.4,0,0,1,0,7.78,6.78,6.78,0,0,1-2.64,2.67,8.28,8.28,0,0,1-7.74,0Zm6.36-2.13a4.49,4.49,0,0,0,1.71-1.8,5.59,5.59,0,0,0,.6-2.62,5.69,5.69,0,0,0-.6-2.63,4.52,4.52,0,0,0-1.71-1.81,5.06,5.06,0,0,0-5,0,4.55,4.55,0,0,0-1.72,1.81,5.47,5.47,0,0,0-.63,2.63,5.37,5.37,0,0,0,.63,2.62,4.52,4.52,0,0,0,1.72,1.8,5.06,5.06,0,0,0,5,0Z" transform="translate(-12.27 -276)"/><path class="a6c89af9-2ed2-4238-84fc-0d4cd18a81c7" d="M430.84,283.23a7.1,7.1,0,0,1,2.7,2.71,7.61,7.61,0,0,1,1,3.83,8.18,8.18,0,0,1-.91,3.84,7,7,0,0,1-2.49,2.69,6.55,6.55,0,0,1-3.54,1,6.72,6.72,0,0,1-2.93-.65,6.57,6.57,0,0,1-2.3-1.82v7.32a1.31,1.31,0,0,1-1.39,1.38,1.33,1.33,0,0,1-1-.38,1.29,1.29,0,0,1-.4-1V289.77a7.51,7.51,0,0,1,1-3.83,7.26,7.26,0,0,1,2.68-2.71,7.37,7.37,0,0,1,3.79-1A7.46,7.46,0,0,1,430.84,283.23Zm-1.35,10.95a4.8,4.8,0,0,0,1.73-1.82,5.21,5.21,0,0,0,.64-2.59,5.27,5.27,0,0,0-.64-2.6,4.73,4.73,0,0,0-8.36,0,5.49,5.49,0,0,0-.62,2.6,5.42,5.42,0,0,0,.62,2.59,4.78,4.78,0,0,0,1.72,1.82,4.9,4.9,0,0,0,4.91,0Z" transform="translate(-12.27 -276)"/><path class="a6c89af9-2ed2-4238-84fc-0d4cd18a81c7" d="M457,290.38a1.21,1.21,0,0,1-.89.34h-10.3a4.74,4.74,0,0,0,1.72,3.06,5.49,5.49,0,0,0,5.18.87,5.17,5.17,0,0,0,1.45-.73,1.39,1.39,0,0,1,.89-.3,1.18,1.18,0,0,1,.82.27,1.19,1.19,0,0,1,.48.92,1,1,0,0,1-.43.82,7.48,7.48,0,0,1-2.29,1.19,8.29,8.29,0,0,1-6.6-.5,6.93,6.93,0,0,1-2.75-2.67,7.59,7.59,0,0,1-1-3.88,8.07,8.07,0,0,1,.93-3.89,6.8,6.8,0,0,1,2.61-2.68,7.43,7.43,0,0,1,3.78-1,6.74,6.74,0,0,1,3.6.92,6,6,0,0,1,2.33,2.57,8.43,8.43,0,0,1,.82,3.8A1.11,1.11,0,0,1,457,290.38Zm-9.6-4.73a4.81,4.81,0,0,0-1.56,2.9h9a4.81,4.81,0,0,0-1.35-2.9,4,4,0,0,0-2.9-1.08A4.69,4.69,0,0,0,447.41,285.65Z" transform="translate(-12.27 -276)"/><path class="a6c89af9-2ed2-4238-84fc-0d4cd18a81c7" d="M475.83,282.62a1.26,1.26,0,0,1,.81,1.08.82.82,0,0,1,0,.27,1,1,0,0,1-1.08.87,2.1,2.1,0,0,1-.41-.06,11.42,11.42,0,0,0-1.76-.19,5.12,5.12,0,0,0-3.15.9A2.87,2.87,0,0,0,469,287.9v7.92a1.38,1.38,0,0,1-.34,1,1.34,1.34,0,0,1-1,.35,1.39,1.39,0,0,1-1-.34,1.34,1.34,0,0,1-.35-1V283.7a1.24,1.24,0,0,1,1.36-1.36A1.2,1.2,0,0,1,469,283.7v.52a5.71,5.71,0,0,1,2-1.5,6.08,6.08,0,0,1,2.55-.54A4.86,4.86,0,0,1,475.83,282.62Z" transform="translate(-12.27 -276)"/></svg>
