<svg id="b4039166-0ee4-4d19-98dd-594f77eab032" data-name="Layer 10" xmlns="http://www.w3.org/2000/svg" viewBox="0 0 450.1 186.5"><defs><style>.acd6aa2a-ba85-4e8d-bcf2-8d4cfccd3853,.be02e8da-ee7c-4f75-a3a6-42afe981e071{fill:#0071bc;}.be02e8da-ee7c-4f75-a3a6-42afe981e071{stroke:#c69c6d;stroke-miterlimit:10;stroke-width:2px;opacity:0.2;}.a665ae57-15de-4635-8a90-11c79882d502{fill:none;}.aafc3fb6-0413-429b-a43e-baa5b74eaa26{fill:gray;}.f59f7ae5-59ea-4ec7-90af-75f96db583ca{fill:#c7b299;}.e1ce32b9-6c57-4819-8f23-b9437ec242e7{fill:#36200e;}.a400ac02-6d58-49c7-9c71-61470eecabff{fill:#736357;}.acd6aa2a-ba85-4e8d-bcf2-8d4cfccd3853{opacity:0.24;}.ec595d5d-3413-43ed-aef8-a7ed3234f623{fill:#f2f2f2;opacity:0.74;}</style></defs><path class="be02e8da-ee7c-4f75-a3a6-42afe981e071" d="M232.88,289a86.73,86.73,0,0,1-85.64,87.8h-.35a86.72,86.72,0,0,1-2.14-173.43h.35A86.71,86.71,0,0,1,232.88,289Z" transform="translate(-31.59 -191.33)"/><path class="a665ae57-15de-4635-8a90-11c79882d502" d="M344.77,196.54,328.34,199" transform="translate(-31.59 -191.33)"/><path class="aafc3fb6-0413-429b-a43e-baa5b74eaa26" d="M345,196.5v0h-.21Z" transform="translate(-31.59 -191.33)"/><path class="be02e8da-ee7c-4f75-a3a6-42afe981e071" d="M456.46,285a86.72,86.72,0,0,1-85.64,87.79h-.35a86.72,86.72,0,0,1-2.14-173.43h.35A86.71,86.71,0,0,1,456.46,285Z" transform="translate(-31.59 -191.33)"/><path class="f59f7ae5-59ea-4ec7-90af-75f96db583ca" d="M283.55,245.8a44.43,44.43,0,0,0-17.7-7.61,41.09,41.09,0,0,0-17.6.22c-10.52,2.56-16,8.64-19.49,6.11-.78-.58-.46-2-2-3.89-1.14-1.39-1.86-1.44-2-1.93-.57-2.33,13.56-11,31.14-12.12,0,0,12.15-.74,29.44,7.46,1.38.66,3.68,1.88,4,3.86.22,1.55-1.08,3-2.59,4.84A20.46,20.46,0,0,1,283.55,245.8Z" transform="translate(-31.59 -191.33)"/><path class="a665ae57-15de-4635-8a90-11c79882d502" d="M111.2,195.39l-18.31,2.69" transform="translate(-31.59 -191.33)"/><path class="e1ce32b9-6c57-4819-8f23-b9437ec242e7" d="M233.49,258.4a36.66,36.66,0,0,1-1.86,7.84,3.24,3.24,0,0,1-1.93,2,3.44,3.44,0,0,1-3.93-1.9c-2.37-7.7-9.72-27.76-29.87-42.67a86.45,86.45,0,0,0-37.36-15.19,84.72,84.72,0,0,0-15.66-1,90,90,0,0,0-33.16,7.43A84.16,84.16,0,0,0,93.91,224c-18.86,13.91-27,33.39-30.48,44.33a12.05,12.05,0,0,1-6.29.08,6.84,6.84,0,0,1-3.65-1.91c-1.05-1.2-1.22-2.53-1.56-5.05-.35-2.77,0-3.44-.48-6.65a40.22,40.22,0,0,0-1.66-6.59A14.84,14.84,0,0,0,47.54,245c-1.59-1.7-3.16-2.07-8.47-4.39-1.32-.57-2.36-1.05-3-1.34a13.45,13.45,0,0,1-1.39-1.88c-3.63-5.72-4.27-14.4-.77-19.61,2.75-4.1,7.49-5,11.29-6,22.61-6.25,35.91-8.27,35.91-8.27,17.63-2.68,26.44-4,28.37-4.26,11.8-1.36,21.25-2.46,33.24-2.43l2.74,0a215.06,215.06,0,0,1,22.77,1.67c6.39.71,22,4.39,36.2,15.2a123.76,123.76,0,0,1,15,13.51,82.75,82.75,0,0,1,7.94,9.68c3.29,4.72,5.14,7.45,6,11.67A28.71,28.71,0,0,1,233.49,258.4Z" transform="translate(-31.59 -191.33)"/><path class="aafc3fb6-0413-429b-a43e-baa5b74eaa26" d="M111.44,195.35v0h-.24Z" transform="translate(-31.59 -191.33)"/><path d="M39.23,265.44" transform="translate(-31.59 -191.33)"/><path d="M22,239.49" transform="translate(-31.59 -191.33)"/><rect class="f59f7ae5-59ea-4ec7-90af-75f96db583ca" x="31.62" y="223.62" width="15.65" height="5.87" transform="translate(-34.38 -190.83) rotate(-0.71)"/><path class="a400ac02-6d58-49c7-9c71-61470eecabff" d="M233.49,258.4a36.66,36.66,0,0,1-1.86,7.84,3.24,3.24,0,0,1-1.93,2,3.44,3.44,0,0,1-3.93-1.9c-2.37-7.7-9.72-27.76-29.87-42.67a86.45,86.45,0,0,0-37.36-15.19,84.72,84.72,0,0,0-15.66-1l-.13-10.64,2.74,0a215.06,215.06,0,0,1,22.77,1.67c6.39.71,22,4.39,36.2,15.2a123.76,123.76,0,0,1,15,13.51,82.75,82.75,0,0,1,7.94,9.68c3.29,4.72,5.14,7.45,6,11.67A28.71,28.71,0,0,1,233.49,258.4Z" transform="translate(-31.59 -191.33)"/><path class="a665ae57-15de-4635-8a90-11c79882d502" d="M419.7,193.6l-18.37-2.23" transform="translate(-31.59 -191.33)"/><path class="aafc3fb6-0413-429b-a43e-baa5b74eaa26" d="M401.09,191.33v0h.24Z" transform="translate(-31.59 -191.33)"/><path class="acd6aa2a-ba85-4e8d-bcf2-8d4cfccd3853" d="M205.82,235.26c-.64,1.81-3.94,1.79-13.67,2.13-45.26,1.59-56.3,5.12-60.55,6.61-4.8,1.69-14.52,5.22-23.3,14C98,268.3,91.56,283.23,75.7,311.2c-1.54,2.72-4.65,8.35-7.73,7.92-2.35-.33-3.74-4.07-4.73-7.52-5.84-20.55-.49-40.35-.49-40.35A90.07,90.07,0,0,1,74.88,244.7h0c13.41-19.93,32-28.53,40.68-31.8a85,85,0,0,1,43-4.44C184.73,212.77,207.74,229.89,205.82,235.26Z" transform="translate(-31.59 -191.33)"/><path class="acd6aa2a-ba85-4e8d-bcf2-8d4cfccd3853" d="M429.71,232.11c-.65,1.81-3.94,1.79-13.67,2.13-45.27,1.59-56.3,5.12-60.56,6.61-4.79,1.69-14.52,5.22-23.3,14-10.34,10.32-16.73,25.25-32.59,53.22-1.55,2.72-4.66,8.35-7.73,7.92-2.36-.33-3.75-4.07-4.73-7.52-5.84-20.55-.5-40.35-.5-40.35a90,90,0,0,1,12.13-26.55h0c13.41-19.93,32-28.53,40.69-31.8a85,85,0,0,1,43-4.44C408.62,209.62,431.62,226.74,429.71,232.11Z" transform="translate(-31.59 -191.33)"/><path class="e1ce32b9-6c57-4819-8f23-b9437ec242e7" d="M280.63,257.37a36.62,36.62,0,0,0,2.05,7.8,3.34,3.34,0,0,0,2,1.93,3.46,3.46,0,0,0,3.89-2c2.17-7.75,9-28,28.8-43.39a86.63,86.63,0,0,1,37-16.1A85.29,85.29,0,0,1,370,204.25a89.86,89.86,0,0,1,33.34,6.61,83.82,83.82,0,0,1,16,8.67c19.2,13.43,27.83,32.71,31.56,43.56a12,12,0,0,0,6.3-.08,6.62,6.62,0,0,0,3.59-2c1-1.22,1.16-2.55,1.44-5.08.28-2.78-.12-3.44.31-6.66a39.24,39.24,0,0,1,1.51-6.63,14.42,14.42,0,0,1,2.17-3.21c1.54-1.74,3.1-2.15,8.35-4.6,1.3-.61,2.34-1.11,2.94-1.41a14.35,14.35,0,0,0,1.34-1.91c3.49-5.82,3.91-14.51.29-19.63-2.85-4-7.61-4.77-11.44-5.72-22.76-5.69-36.1-7.38-36.1-7.38-17.69-2.25-26.53-3.39-28.46-3.56-11.83-1.07-21.31-1.93-33.3-1.61l-2.74.1a215.15,215.15,0,0,0-22.72,2.23c-6.36.86-21.88,4.93-35.81,16.09a124.14,124.14,0,0,0-14.62,13.88,80.16,80.16,0,0,0-7.7,9.87c-3.17,4.79-5,7.57-5.72,11.81A28.62,28.62,0,0,0,280.63,257.37Z" transform="translate(-31.59 -191.33)"/><rect class="f59f7ae5-59ea-4ec7-90af-75f96db583ca" x="466.01" y="217.82" width="15.65" height="5.87" transform="translate(918.76 244.31) rotate(179.29)"/><path class="a400ac02-6d58-49c7-9c71-61470eecabff" d="M280.63,257.37a36.62,36.62,0,0,0,2.05,7.8,3.34,3.34,0,0,0,2,1.93,3.46,3.46,0,0,0,3.89-2c2.17-7.75,9-28,28.8-43.39a86.63,86.63,0,0,1,37-16.1A85.29,85.29,0,0,1,370,204.25l-.13-10.64-2.74.1a215.15,215.15,0,0,0-22.72,2.23c-6.36.86-21.88,4.93-35.81,16.09a124.14,124.14,0,0,0-14.62,13.88,80.16,80.16,0,0,0-7.7,9.87c-3.17,4.79-5,7.57-5.72,11.81A28.62,28.62,0,0,0,280.63,257.37Z" transform="translate(-31.59 -191.33)"/><circle class="ec595d5d-3413-43ed-aef8-a7ed3234f623" cx="169.84" cy="84.09" r="8.8"/><path class="ec595d5d-3413-43ed-aef8-a7ed3234f623" d="M159.21,358h0a5.15,5.15,0,0,1,.3-8.61,75.18,75.18,0,0,0,34.54-49,5.15,5.15,0,0,1,8-3.14h0a5.17,5.17,0,0,1,2,5.45A92.2,92.2,0,0,1,165,358.13,5.19,5.19,0,0,1,159.21,358Z" transform="translate(-31.59 -191.33)"/><circle class="ec595d5d-3413-43ed-aef8-a7ed3234f623" cx="396.67" cy="77.38" r="8.8"/><path class="ec595d5d-3413-43ed-aef8-a7ed3234f623" d="M386,351.33h0a5.14,5.14,0,0,1,.31-8.61,75.27,75.27,0,0,0,34.54-49,5.14,5.14,0,0,1,8-3.14h0a5.17,5.17,0,0,1,2,5.45,92.16,92.16,0,0,1-39.06,55.37A5.19,5.19,0,0,1,386,351.33Z" transform="translate(-31.59 -191.33)"/></svg>
