<svg xmlns="http://www.w3.org/2000/svg" xmlns:xlink="http://www.w3.org/1999/xlink" viewBox="0 0 484 200.94"><defs><style>.a1b49e64-c8ff-4ab6-bc77-feb5a84ebb01{fill:#009245;}.bd58ebbd-21ce-4068-a4d1-e7626c2c5a36{fill:url(#b3020d6a-a499-4a4a-a5f9-cb3fd4f120f9);}.ae0dcf3b-37a8-44ab-bc64-4c9c0ae56048{fill:#006837;opacity:0.61;}.ed372380-f2d5-4d59-8765-c46f0537cd2e{fill:url(#aa0cd91b-2409-4b79-83bc-058b544d640d);}.bcc3bfeb-9f5d-4851-8880-becbf4fc87ef{fill:#603813;}.b9269ba1-dd6f-4d32-b3b7-899d4b67b02b{fill:#ec9670;}.a92c7285-5df2-4a01-8b63-f625097f5533,.e6e001db-a874-4572-9327-a6761764280d{fill:#cb7300;}.a92c7285-5df2-4a01-8b63-f625097f5533{opacity:0.34;}.b8f2c519-f1f7-4350-bbcb-0619fbcebaf5{font-size:95px;font-family:Comfortaa-Bold, Comfortaa;font-weight:700;letter-spacing:0.2em;}.f3d723a5-a485-461a-94d5-46690c205d39{letter-spacing:0.17em;}.fd21465c-d3cc-421f-81cb-69c8b713fa92{letter-spacing:0.2em;}</style><radialGradient id="b3020d6a-a499-4a4a-a5f9-cb3fd4f120f9" cx="192.23" cy="194.88" r="62.42" gradientTransform="matrix(-0.16, -0.99, -1.56, 0.25, 598.14, 336.71)" gradientUnits="userSpaceOnUse"><stop offset="0.26" stop-color="#22b573"/><stop offset="0.53" stop-color="#fcee21"/></radialGradient><radialGradient id="aa0cd91b-2409-4b79-83bc-058b544d640d" cx="231.09" cy="194.79" r="62.42" gradientTransform="translate(-109.3 375.03) rotate(-81.03) scale(1 1.58)" xlink:href="#b3020d6a-a499-4a4a-a5f9-cb3fd4f120f9"/></defs><title>logo1</title><g id="a634c6ed-c7be-490c-9f63-eb5b8d7d3510" data-name="pot"><g id="ab86dcab-4b35-43bf-91b5-068c71bcf9d9" data-name="sprout"><polygon class="a1b49e64-c8ff-4ab6-bc77-feb5a84ebb01" points="232.03 76.38 222.74 76.38 224.6 15.26 230.17 15.26 232.03 76.38"/><path class="bd58ebbd-21ce-4068-a4d1-e7626c2c5a36" d="M247.25,180.81c.05,1.66.6,12.28,8.6,17.74s20,3.1,25.5-.93a54.09,54.09,0,0,1,7.85-5,29.91,29.91,0,0,1,6-2.52s.6-.17,4.78-1.14h0l0-.06c-38.95-46-51.51-11.73-52.63-8.32,0,0,0,.06,0,.07A1.47,1.47,0,0,0,247.25,180.81Z" transform="translate(-20 -165)"/><path class="ae0dcf3b-37a8-44ab-bc64-4c9c0ae56048" d="M247.25,180.81c.05,1.66.6,12.28,8.6,17.74s20,3.1,25.5-.93a54.09,54.09,0,0,1,7.85-5,29.91,29.91,0,0,1,6-2.52s.6-.17,4.78-1.14h0l0-.06-52.66-8.25A1.47,1.47,0,0,0,247.25,180.81Z" transform="translate(-20 -165)"/><path class="a1b49e64-c8ff-4ab6-bc77-feb5a84ebb01" d="M300.53,190" transform="translate(-20 -165)"/><path class="ed372380-f2d5-4d59-8765-c46f0537cd2e" d="M247.51,180.72c-.06,1.66-.6,12.28-8.6,17.74s-20,3.1-25.51-.93a54.38,54.38,0,0,0-7.85-5,29.91,29.91,0,0,0-6-2.52s-.6-.17-4.78-1.13v0s0,0,.05-.05c38.94-46,51.51-11.74,52.62-8.33,0,0,0,.06,0,.07Z" transform="translate(-20 -165)"/><path class="ae0dcf3b-37a8-44ab-bc64-4c9c0ae56048" d="M247.51,180.72c-.06,1.66-.6,12.28-8.6,17.74s-20,3.1-25.51-.93a54.38,54.38,0,0,0-7.85-5,29.91,29.91,0,0,0-6-2.52s-.6-.17-4.78-1.13v0s0,0,.05-.05l52.65-8.26Z" transform="translate(-20 -165)"/><path class="a1b49e64-c8ff-4ab6-bc77-feb5a84ebb01" d="M194.22,189.88" transform="translate(-20 -165)"/><polygon class="bcc3bfeb-9f5d-4851-8880-becbf4fc87ef" points="199.63 66.17 143.67 76.67 305.95 76.67 254.19 66.17 199.63 66.17"/></g><g id="f7c5f7ab-c879-40c1-9ff7-7ba2c30e988e" data-name="holder"><path class="b9269ba1-dd6f-4d32-b3b7-899d4b67b02b" d="M317.07,248.77l-.95,7.66-.81,6.57-.06.42-10.78,86.94c-.79,6.33-7.57,11.14-15.69,11.14H204.06c-8.11,0-14.9-4.81-15.68-11.14l-10.79-86.94-.05-.42-.81-6.57-.95-7.66Z" transform="translate(-20 -165)"/><polygon class="e6e001db-a874-4572-9327-a6761764280d" points="296.12 91.43 295.31 98.42 157.54 98.42 156.73 91.43 296.12 91.43"/><path class="b9269ba1-dd6f-4d32-b3b7-899d4b67b02b" d="M332.36,246.22v5.1c0,2.82-2.88,5.11-6.41,5.11H164c-3.55,0-6.43-2.29-6.43-5.11v-5.1c0-2.83,2.88-5.11,6.43-5.11H326C329.48,241.11,332.36,243.39,332.36,246.22Z" transform="translate(-20 -165)"/><path class="a92c7285-5df2-4a01-8b63-f625097f5533" d="M332.36,246.22v5.1c0,2.82-2.92,5.11-6.52,5.11h-9.72l-.81,7h-.06l-10.78,86.94c-.79,6.33-7.57,11.14-15.69,11.14H245.72V241.11h80.12C329.44,241.11,332.36,243.39,332.36,246.22Z" transform="translate(-20 -165)"/></g></g><g id="b660fb60-2738-45cb-bcf5-2f531dcaa282" data-name="Layer 8"><text class="b8f2c519-f1f7-4350-bbcb-0619fbcebaf5" transform="translate(0 174.72) scale(0.96 1)">danie<tspan class="f3d723a5-a485-461a-94d5-46690c205d39" x="378.37" y="0">l</tspan><tspan class="fd21465c-d3cc-421f-81cb-69c8b713fa92" x="423.02" y="0">a</tspan></text><text class="b8f2c519-f1f7-4350-bbcb-0619fbcebaf5" transform="translate(0 174.72) scale(0.96 1)">danie<tspan class="f3d723a5-a485-461a-94d5-46690c205d39" x="378.37" y="0">l</tspan><tspan class="fd21465c-d3cc-421f-81cb-69c8b713fa92" x="423.02" y="0">a</tspan></text></g></svg>