<svg xmlns="http://www.w3.org/2000/svg" xmlns:xlink="http://www.w3.org/1999/xlink" viewBox="0 0 494.18 337.98"><defs><style>.cls-1{fill:#009245;}.cls-2{fill:url(#radial-gradient);}.cls-3{fill:#006837;opacity:0.61;}.cls-4{fill:url(#radial-gradient-2);}.cls-5{fill:#603813;}.cls-6{fill:#ec9670;}.cls-7,.cls-8{fill:#cb7300;}.cls-8{opacity:0.34;}.cls-9{font-size:21.66px;fill:#662d91;letter-spacing:0.21em;}.cls-13,.cls-9{font-family:Comfortaa-Bold, Comfortaa;font-weight:700;}.cls-10{letter-spacing:0.19em;}.cls-11{letter-spacing:0.19em;}.cls-12{letter-spacing:0.18em;}.cls-13{font-size:92.75px;letter-spacing:0.2em;}.cls-14{letter-spacing:0.17em;}.cls-15,.cls-16,.cls-17{fill:none;stroke-miterlimit:10;stroke-width:2px;}.cls-15{stroke:#fbb03b;}.cls-16{stroke:#ff7bac;}.cls-17{stroke:#29abe2;}</style><radialGradient id="radial-gradient" cx="188.22" cy="178.08" fy="170.9304405934512" r="83.57" gradientTransform="matrix(-0.16, -0.99, -1.56, 0.25, 575.26, 320.09)" gradientUnits="userSpaceOnUse"><stop offset="0.26" stop-color="#22b573"/><stop offset="0.53" stop-color="#fcee21"/></radialGradient><radialGradient id="radial-gradient-2" cx="224.05" cy="177.96" fy="170.8119323284688" r="83.57" gradientTransform="translate(-88.93 355.39) rotate(-81.03) scale(1 1.58)" xlink:href="#radial-gradient"/></defs><title>logo</title><g id="Layer_2" data-name="Layer 2"><polygon class="cls-1" points="242.28 178.32 229.84 178.32 232.33 96.48 239.79 96.48 242.28 178.32"/><path class="cls-2" d="M245.69,159.23c.07,2.23.8,16.45,11.52,23.75s26.76,4.16,34.14-1.24A74.46,74.46,0,0,1,301.86,175a40.26,40.26,0,0,1,8.07-3.37s.81-.22,6.41-1.52l0,0s0-.05-.06-.07c-52.14-61.55-69-15.71-70.46-11.14,0,0,0,.07,0,.09S245.69,159.23,245.69,159.23Z" transform="translate(-9.82 -62.02)"/><path class="cls-3" d="M245.69,159.23c.07,2.23.8,16.45,11.52,23.75s26.76,4.16,34.14-1.24A74.46,74.46,0,0,1,301.86,175a40.26,40.26,0,0,1,8.07-3.37s.81-.22,6.41-1.52l0,0s0-.05-.06-.07L245.76,159C245.71,159.14,245.69,159.23,245.69,159.23Z" transform="translate(-9.82 -62.02)"/><path class="cls-1" d="M317,171.5" transform="translate(-9.82 -62.02)"/><path class="cls-4" d="M246,159.11c-.07,2.23-.81,16.45-11.52,23.75-10.86,7.42-26.76,4.16-34.14-1.23a73.22,73.22,0,0,0-10.51-6.75,40.86,40.86,0,0,0-8.07-3.37s-.81-.22-6.41-1.52h0l.06-.08c52.14-61.55,69-15.71,70.46-11.14,0,0,0,.07,0,.09C246,159,246,159.11,246,159.11Z" transform="translate(-9.82 -62.02)"/><path class="cls-3" d="M246,159.11c-.07,2.23-.81,16.45-11.52,23.75-10.86,7.42-26.76,4.16-34.14-1.23a73.22,73.22,0,0,0-10.51-6.75,40.86,40.86,0,0,0-8.07-3.37s-.81-.22-6.41-1.52h0l.06-.08L246,158.85C246,159,246,159.11,246,159.11Z" transform="translate(-9.82 -62.02)"/><path class="cls-1" d="M174.7,171.38" transform="translate(-9.82 -62.02)"/><polygon class="cls-5" points="198.89 164.65 123.97 178.7 341.24 178.7 271.94 164.65 198.89 164.65"/><path class="cls-6" d="M339.52,249.07l-1.27,10.25-1.09,8.8-.07.57L322.65,385.08c-1,8.47-10.14,14.92-21,14.92H188.22c-10.86,0-19.95-6.45-21-14.92L152.78,268.69l-.07-.57-1.09-8.8-1.27-10.25Z" transform="translate(-9.82 -62.02)"/><polygon class="cls-7" points="328.43 197.31 327.34 206.67 142.89 206.67 141.8 197.31 328.43 197.31"/><path class="cls-6" d="M360,245.65v6.83c0,3.78-3.85,6.84-8.59,6.84H134.61c-4.76,0-8.61-3.06-8.61-6.84v-6.83c0-3.78,3.85-6.84,8.61-6.84H351.4C356.14,238.81,360,241.87,360,245.65Z" transform="translate(-9.82 -62.02)"/><path class="cls-8" d="M360,245.65v6.83c0,3.78-3.91,6.84-8.72,6.84h-13l-1.09,9.37h-.07L322.65,385.08c-1,8.47-10.14,14.92-21,14.92H244V238.81H351.27C356.08,238.81,360,241.87,360,245.65Z" transform="translate(-9.82 -62.02)"/></g><g id="Layer_8" data-name="Layer 8"><text class="cls-9" transform="translate(48.51 313.79)">full stack <tspan class="cls-10" x="159.09" y="0">w</tspan><tspan x="179" y="0">eb d</tspan><tspan class="cls-11" x="247.53" y="0">ev</tspan><tspan x="281.13" y="0">e</tspan><tspan class="cls-12" x="299.15" y="0">l</tspan><tspan x="309.57" y="0">oper</tspan></text><text class="cls-13" transform="translate(0 282.12)">danie<tspan class="cls-14" x="369.43" y="0">l</tspan><tspan x="413.02" y="0">a</tspan></text><text class="cls-13" transform="translate(0 282.12)">danie<tspan class="cls-14" x="369.43" y="0">l</tspan><tspan x="413.02" y="0">a</tspan></text></g><g id="Layer_7" data-name="Layer 7"><path class="cls-15" d="M208.33,92.36a17,17,0,0,0-5.81-10.84,16.75,16.75,0,0,0-9.73-3.84,16.85,16.85,0,0,0,9.5-4.4,17.06,17.06,0,0,0,5.19-11.14A17,17,0,0,0,213.28,73,16.83,16.83,0,0,0,223,76.82a16.84,16.84,0,0,0-9.5,4.39A17.07,17.07,0,0,0,208.33,92.36Z" transform="translate(-9.82 -62.02)"/><path class="cls-16" d="M179.19,114.29a17,17,0,0,0-5.81-10.84,16.79,16.79,0,0,0-9.73-3.85,16.81,16.81,0,0,0,9.5-4.39,17.08,17.08,0,0,0,5.19-11.15,17,17,0,0,0,5.8,10.84,16.83,16.83,0,0,0,9.73,3.85,16.84,16.84,0,0,0-9.5,4.39A17.05,17.05,0,0,0,179.19,114.29Z" transform="translate(-9.82 -62.02)"/><path class="cls-17" d="M208,132.35a17,17,0,0,0-5.81-10.83,16.79,16.79,0,0,0-9.73-3.85,16.81,16.81,0,0,0,9.5-4.39,17,17,0,0,0,5.19-11.15,16.54,16.54,0,0,0,15.54,14.69,16.72,16.72,0,0,0-9.5,4.39A17,17,0,0,0,208,132.35Z" transform="translate(-9.82 -62.02)"/></g></svg>