<svg id="ad78a5fa-6415-47df-be7d-0e8d2f05c946" data-name="Layer 2" xmlns="http://www.w3.org/2000/svg" xmlns:xlink="http://www.w3.org/1999/xlink" viewBox="0 0 353.34 166.93"><defs><style>.a915cb1c-472c-41da-bf9b-68d6bb0a82f2{fill:#009245;}.a27a69c1-99d6-4a2e-8606-46f280379dac{fill:url(#e4936337-b1cc-4472-915b-e60135fcadbe);}.ad7f2457-4a57-4354-a31c-4cd7967e3326{fill:#006837;opacity:0.61;}.eefca9b9-783f-470b-b15e-3293a87a353e{fill:url(#e72a9e80-58c2-4594-af54-ada82e40dd58);}.b50935bf-e14d-462e-a5fc-1b4542c8ef92{fill:#603813;}</style><radialGradient id="e4936337-b1cc-4472-915b-e60135fcadbe" cx="169.36" cy="245.06" fy="233.44230018613254" r="135.91" gradientTransform="matrix(-0.16, -0.99, -1.56, 0.25, 695.85, 351.92)" gradientUnits="userSpaceOnUse"><stop offset="0.26" stop-color="#22b573"/><stop offset="0.53" stop-color="#fcee21"/></radialGradient><radialGradient id="e72a9e80-58c2-4594-af54-ada82e40dd58" cx="215.6" cy="244.87" fy="233.24957136550228" r="135.91" gradientTransform="translate(-200.62 397.45) rotate(-81.03) scale(1 1.58)" xlink:href="#e4936337-b1cc-4472-915b-e60135fcadbe"/></defs><title>plant</title><polygon class="a915cb1c-472c-41da-bf9b-68d6bb0a82f2" points="192.4 166.31 172.17 166.31 176.22 33.22 188.35 33.22 192.4 166.31"/><path class="a27a69c1-99d6-4a2e-8606-46f280379dac" d="M250.78,214.42c.12,3.62,1.31,26.74,18.73,38.62C287.18,265.1,313,259.8,325,251a118.58,118.58,0,0,1,17.09-11,65.21,65.21,0,0,1,13.13-5.48s1.31-.36,10.42-2.47l0,0-.1-.12C280.75,131.87,253.4,206.41,251,213.84c0,.06,0,.12-.06.15A3.64,3.64,0,0,0,250.78,214.42Z" transform="translate(-68.8 -180)"/><path class="ad7f2457-4a57-4354-a31c-4cd7967e3326" d="M250.78,214.42c.12,3.62,1.31,26.74,18.73,38.62C287.18,265.1,313,259.8,325,251a118.58,118.58,0,0,1,17.09-11,65.21,65.21,0,0,1,13.13-5.48s1.31-.36,10.42-2.47l0,0-.1-.12L250.9,214A3.64,3.64,0,0,0,250.78,214.42Z" transform="translate(-68.8 -180)"/><path class="a915cb1c-472c-41da-bf9b-68d6bb0a82f2" d="M366.8,234.37" transform="translate(-68.8 -180)"/><path class="eefca9b9-783f-470b-b15e-3293a87a353e" d="M251.35,214.22c-.12,3.63-1.31,26.75-18.73,38.63-17.67,12.06-43.53,6.76-55.53-2a116.78,116.78,0,0,0-17.09-11,65,65,0,0,0-13.13-5.48s-1.31-.37-10.41-2.47l0,0s.06-.09.09-.12c84.8-100.09,112.15-25.56,114.59-18.13,0,.07,0,.13.06.16A3.92,3.92,0,0,1,251.35,214.22Z" transform="translate(-68.8 -180)"/><path class="ad7f2457-4a57-4354-a31c-4cd7967e3326" d="M251.35,214.22c-.12,3.63-1.31,26.75-18.73,38.63-17.67,12.06-43.53,6.76-55.53-2a116.78,116.78,0,0,0-17.09-11,65,65,0,0,0-13.13-5.48s-1.31-.37-10.41-2.47l0,0s.06-.09.09-.12l114.65-18A3.92,3.92,0,0,1,251.35,214.22Z" transform="translate(-68.8 -180)"/><path class="a915cb1c-472c-41da-bf9b-68d6bb0a82f2" d="M135.33,234.17" transform="translate(-68.8 -180)"/><polygon class="b50935bf-e14d-462e-a5fc-1b4542c8ef92" points="121.84 144.09 0 166.93 353.34 166.93 240.64 144.09 121.84 144.09"/></svg>