<svg id="pot" xmlns="http://www.w3.org/2000/svg" xmlns:xlink="http://www.w3.org/1999/xlink" viewBox="0 0 241.2 271.19"><defs><style>.cls-1{fill:#009245;}.cls-2{fill:url(#radial-gradient);}.cls-3{fill:#006837;opacity:0.61;}.cls-4{fill:url(#radial-gradient-2);}.cls-5{fill:#603813;}.cls-6{fill:#ec9670;}.cls-7,.cls-8{fill:#cb7300;}.cls-8{opacity:0.34;}</style><radialGradient id="radial-gradient" cx="193.09" cy="189.05" fy="181.6824537659717" r="86.14" gradientTransform="matrix(-0.16, -0.99, -1.56, 0.25, 588.29, 333.16)" gradientUnits="userSpaceOnUse"><stop offset="0.26" stop-color="#22b573"/><stop offset="0.53" stop-color="#fcee21"/></radialGradient><radialGradient id="radial-gradient-2" cx="217.84" cy="188.93" fy="181.56029477445608" r="86.14" gradientTransform="translate(-111.31 357.52) rotate(-81.03) scale(1 1.58)" xlink:href="#radial-gradient"/></defs><g id="sprout"><polygon class="cls-1" points="130.34 105.42 117.52 105.42 120.08 21.06 127.78 21.06 130.34 105.42"/><path class="cls-2" d="M240.14,169.62c.08,2.3.83,16.95,11.87,24.48,11.2,7.65,27.59,4.29,35.2-1.27a74.11,74.11,0,0,1,10.83-7,41.43,41.43,0,0,1,8.32-3.48s.83-.23,6.61-1.56l0,0-.06-.08c-53.75-63.44-71.09-16.19-72.63-11.48,0,0,0,.07,0,.09C240.16,169.53,240.14,169.62,240.14,169.62Z" transform="translate(-116.41 -147.81)"/><path class="cls-3" d="M240.14,169.62c.08,2.3.83,16.95,11.87,24.48,11.2,7.65,27.59,4.29,35.2-1.27a74.11,74.11,0,0,1,10.83-7,41.43,41.43,0,0,1,8.32-3.48s.83-.23,6.61-1.56l0,0-.06-.08-72.67-11.39C240.16,169.53,240.14,169.62,240.14,169.62Z" transform="translate(-116.41 -147.81)"/><path class="cls-1" d="M313.68,182.27" transform="translate(-116.41 -147.81)"/><path class="cls-4" d="M240.5,169.5c-.07,2.3-.83,16.95-11.87,24.48-11.2,7.65-27.59,4.29-35.2-1.27a74.11,74.11,0,0,0-10.83-7,41.18,41.18,0,0,0-8.32-3.48s-.83-.23-6.6-1.56l0,0s0-.06.05-.08c53.75-63.44,71.09-16.2,72.64-11.49,0,0,0,.08,0,.1C240.48,169.4,240.5,169.5,240.5,169.5Z" transform="translate(-116.41 -147.81)"/><path class="cls-3" d="M240.5,169.5c-.07,2.3-.83,16.95-11.87,24.48-11.2,7.65-27.59,4.29-35.2-1.27a74.11,74.11,0,0,0-10.83-7,41.18,41.18,0,0,0-8.32-3.48s-.83-.23-6.6-1.56l0,0s0-.06.05-.08l72.68-11.39C240.48,169.4,240.5,169.5,240.5,169.5Z" transform="translate(-116.41 -147.81)"/><path class="cls-1" d="M167,182.15" transform="translate(-116.41 -147.81)"/><polygon class="cls-5" points="85.62 91.33 8.39 105.81 232.35 105.81 160.91 91.33 85.62 91.33"/></g><g id="holder"><path class="cls-6" d="M336.5,263.42,335.19,274l-1.12,9.06-.08.59-14.88,120C318,412.35,308.66,419,297.47,419H180.54c-11.2,0-20.56-6.65-21.64-15.38L144,283.64l-.07-.59L142.82,274l-1.32-10.57Z" transform="translate(-116.41 -147.81)"/><polygon class="cls-7" points="218.79 126.18 217.67 135.83 27.53 135.83 26.41 126.18 218.79 126.18"/><path class="cls-6" d="M357.61,259.9v7c0,3.89-4,7.05-8.86,7.05H125.28c-4.9,0-8.87-3.16-8.87-7.05v-7c0-3.9,4-7.06,8.87-7.06H348.75C353.64,252.84,357.61,256,357.61,259.9Z" transform="translate(-116.41 -147.81)"/><path class="cls-8" d="M357.61,259.9v7c0,3.89-4,7.05-9,7.05H335.19l-1.12,9.65H334l-14.88,120C318,412.35,308.66,419,297.47,419H238V252.84H348.61C353.57,252.84,357.61,256,357.61,259.9Z" transform="translate(-116.41 -147.81)"/></g></svg>
