<svg id="Layer_2" data-name="Layer 2" xmlns="http://www.w3.org/2000/svg" viewBox="0 0 281.38 193.83"><defs><style>.cls-1{fill:#ec9670;}.cls-2,.cls-3{fill:#cb7300;}.cls-3{opacity:0.34;}</style></defs><title>pot</title><path class="cls-1" d="M364.38,258.5l-1.53,12.34-1.31,10.57-.09.69-17.36,140C342.83,432.25,331.9,440,318.84,440H182.44c-13.06,0-24-7.75-25.25-17.94l-17.36-140-.09-.69-1.31-10.57L136.9,258.5Z" transform="translate(-107.62 -246.17)"/><polygon class="cls-2" points="255.23 24.67 253.93 35.93 32.12 35.93 30.81 24.67 255.23 24.67"/><path class="cls-1" d="M389,254.39v8.22c0,4.54-4.63,8.23-10.33,8.23H118c-5.72,0-10.35-3.69-10.35-8.23v-8.22c0-4.54,4.63-8.22,10.35-8.22h260.7C384.37,246.17,389,249.85,389,254.39Z" transform="translate(-107.62 -246.17)"/><path class="cls-3" d="M389,254.39v8.22c0,4.54-4.71,8.23-10.5,8.23H362.85l-1.31,11.26h-.09l-17.36,140C342.83,432.25,331.9,440,318.84,440H249.51V246.17h129C384.29,246.17,389,249.85,389,254.39Z" transform="translate(-107.62 -246.17)"/></svg>