<svg id="Layer_2" data-name="Layer 2" xmlns="http://www.w3.org/2000/svg" xmlns:xlink="http://www.w3.org/1999/xlink" viewBox="0 0 281.38 314.98"><defs><style>.cls-1{fill:#009245;}.cls-2{fill:url(#radial-gradient);}.cls-3{fill:#006837;opacity:0.61;}.cls-4{fill:url(#radial-gradient-2);}.cls-5{fill:#603813;}.cls-6{fill:#ec9670;}.cls-7,.cls-8{fill:#cb7300;}.cls-8{opacity:0.34;}</style><radialGradient id="radial-gradient" cx="177.91" cy="173.13" fy="164.54020543989154" r="100.49" gradientTransform="matrix(-0.16, -0.99, -1.56, 0.25, 576.24, 306.18)" gradientUnits="userSpaceOnUse"><stop offset="0.26" stop-color="#22b573"/><stop offset="0.53" stop-color="#fcee21"/></radialGradient><radialGradient id="radial-gradient-2" cx="225.53" cy="172.99" fy="164.39769736336666" r="100.49" gradientTransform="translate(-79.92 353.11) rotate(-81.03) scale(1 1.58)" xlink:href="#radial-gradient"/></defs><title>whole-plant</title><polygon class="cls-1" points="151.63 122.98 136.68 122.98 139.67 24.56 148.64 24.56 151.63 122.98"/><path class="cls-2" d="M251.55,150.47c.09,2.68,1,19.78,13.85,28.56,13.06,8.92,32.18,5,41.06-1.49a86.92,86.92,0,0,1,12.63-8.1,48.19,48.19,0,0,1,9.71-4.06s1-.27,7.7-1.82l0,0-.07-.09c-62.7-74-82.93-18.9-84.73-13.41a.83.83,0,0,1,0,.12A2.3,2.3,0,0,0,251.55,150.47Z" transform="translate(-107.62 -125.02)"/><path class="cls-3" d="M251.55,150.47c.09,2.68,1,19.78,13.85,28.56,13.06,8.92,32.18,5,41.06-1.49a86.92,86.92,0,0,1,12.63-8.1,48.19,48.19,0,0,1,9.71-4.06s1-.27,7.7-1.82l0,0-.07-.09-84.77-13.29A2.3,2.3,0,0,0,251.55,150.47Z" transform="translate(-107.62 -125.02)"/><path class="cls-1" d="M337.34,165.22" transform="translate(-107.62 -125.02)"/><path class="cls-4" d="M252,150.33c-.09,2.68-1,19.77-13.85,28.56-13.07,8.92-32.19,5-41.06-1.49a87.59,87.59,0,0,0-12.64-8.11,48.93,48.93,0,0,0-9.7-4s-1-.27-7.71-1.82l0,0a.31.31,0,0,0,.07-.09c62.71-74,82.93-18.89,84.73-13.4,0,0,0,.09,0,.11A2.63,2.63,0,0,1,252,150.33Z" transform="translate(-107.62 -125.02)"/><path class="cls-3" d="M252,150.33c-.09,2.68-1,19.77-13.85,28.56-13.07,8.92-32.19,5-41.06-1.49a87.59,87.59,0,0,0-12.64-8.11,48.93,48.93,0,0,0-9.7-4s-1-.27-7.71-1.82l0,0a.31.31,0,0,0,.07-.09L251.88,150A2.63,2.63,0,0,1,252,150.33Z" transform="translate(-107.62 -125.02)"/><path class="cls-1" d="M166.18,165.08" transform="translate(-107.62 -125.02)"/><polygon class="cls-5" points="99.46 106.54 9.37 123.43 270.63 123.43 187.3 106.54 99.46 106.54"/><path class="cls-6" d="M364.38,258.5l-1.53,12.34-1.31,10.57-.09.69-17.36,140C342.83,432.25,331.9,440,318.84,440H182.44c-13.06,0-24-7.75-25.25-17.94l-17.36-140-.09-.69-1.31-10.57L136.9,258.5Z" transform="translate(-107.62 -125.02)"/><polygon class="cls-7" points="255.23 145.81 253.93 157.07 32.12 157.07 30.81 145.81 255.23 145.81"/><path class="cls-6" d="M389,254.39v8.22c0,4.54-4.63,8.23-10.33,8.23H118c-5.72,0-10.35-3.69-10.35-8.23v-8.22c0-4.54,4.63-8.22,10.35-8.22h260.7C384.37,246.17,389,249.85,389,254.39Z" transform="translate(-107.62 -125.02)"/><path class="cls-8" d="M389,254.39v8.22c0,4.54-4.71,8.23-10.5,8.23H362.85l-1.31,11.26h-.09l-17.36,140C342.83,432.25,331.9,440,318.84,440H249.51V246.17h129C384.29,246.17,389,249.85,389,254.39Z" transform="translate(-107.62 -125.02)"/></svg>