<svg id="e6dd8f00-cf64-4578-a185-1f165d081fac" data-name="Layer 9" xmlns="http://www.w3.org/2000/svg" viewBox="0 0 408.42 288.62"><defs><style>.ac40e73a-5cce-4e62-aacc-519daee3bc89{fill:#ccc;}.f4cef37e-cd89-4f35-8e9b-1acbba3fafbb{fill:#b3b3b3;}.b63e5132-14b5-4926-8ab7-6d596cc2787f{fill:#e6e6e6;}.a60709b7-b369-43ff-95ad-2bf226beb7d3{fill:#c69c6d;}.a7c323a1-6608-4e18-a2c3-dd3bb3181ac7{fill:#ff7bac;}.aea879a2-2ffc-48c7-b18d-f67cddd8992d{opacity:0.12;}.aeb758b2-8e89-4d2f-9a2b-c21e570b4f9f{fill:#8c6239;}</style></defs><path class="ac40e73a-5cce-4e62-aacc-519daee3bc89" d="M433,180.2l-2.05,126.47c-1,63.4-53.86,114-118,112.94l-77.45-1.26a116.87,116.87,0,0,1-37.84-6.9c-45.26-16.29-77.24-59.54-76.42-109.8l2.05-126.46c8.91-3.15,19.31-6.52,31.05-9.71A444.52,444.52,0,0,1,433,180.2Z" transform="translate(-24.56 -131)"/><path class="ac40e73a-5cce-4e62-aacc-519daee3bc89" d="M144.72,344a142,142,0,0,1-54-14.23C77.52,323.32,57,313.13,41,289.86c-7.25-10.55-16-23.36-16.45-41.61-.68-29.79,21.68-49.05,24-51,34-28.35,83.65-5.26,85.85,1.34.61,1.83,0,9.76,0,9.76h0a23,23,0,0,0-1.39,5.84,80,80,0,0,0-21.79-8.36c-8-1.77-18.57-4.14-31.09-.23-4.6,1.44-19.26,6-27.44,21.3a47,47,0,0,0-5.3,24.67c2.3,32.28,39.68,53,51.8,59.65A129.28,129.28,0,0,0,141,325.54a26.61,26.61,0,0,1,3.76,10.21A27.09,27.09,0,0,1,144.72,344Z" transform="translate(-24.56 -131)"/><path class="f4cef37e-cd89-4f35-8e9b-1acbba3fafbb" d="M197.66,411.45c-45.26-16.29-77.24-59.54-76.42-109.8l2.05-126.46c8.91-3.15,19.31-6.52,31.05-9.71-3.05,33.39-4.52,61.41-5.29,82.43-1.74,47,0,60,1.57,68.9,3.76,21.12,9.43,53.18,31,78.76A157.44,157.44,0,0,0,197.66,411.45Z" transform="translate(-24.56 -131)"/><ellipse class="b63e5132-14b5-4926-8ab7-6d596cc2787f" cx="278.08" cy="181.14" rx="50.08" ry="154.87" transform="translate(67.9 325.24) rotate(-89.07)"/><path class="f4cef37e-cd89-4f35-8e9b-1acbba3fafbb" d="M432.93,183.64l-309.7-5c.45-27.67,70.13-48.95,155.66-47.57S433.37,156,432.93,183.64Z" transform="translate(-24.56 -131)"/><ellipse class="a60709b7-b369-43ff-95ad-2bf226beb7d3" cx="278.14" cy="177.33" rx="41.37" ry="127.93" transform="translate(71.77 321.56) rotate(-89.07)"/><path class="a7c323a1-6608-4e18-a2c3-dd3bb3181ac7" d="M342.35,295a36.69,36.69,0,0,1-9.21,23.79c-.64.75-1.33,1.48-2.05,2.17l-51,49.35-49.35-51c-.69-.71-1.36-1.46-2-2.23a37,37,0,0,1,52.93-51.24l-2.05,2c.7-.67,1.41-1.3,2.14-1.9.71.62,1.4,1.28,2.08,2l-2-2.05A37,37,0,0,1,342.35,295Z" transform="translate(-24.56 -131)"/><path class="aea879a2-2ffc-48c7-b18d-f67cddd8992d" d="M281.81,266l-1.69,104.37-49.35-51c-.69-.71-1.36-1.46-2-2.23a37,37,0,0,1,52.93-51.24l-2.05,2C280.37,267.19,281.08,266.56,281.81,266Z" transform="translate(-24.56 -131)"/><ellipse class="aeb758b2-8e89-4d2f-9a2b-c21e570b4f9f" cx="265.6" cy="177.1" rx="39.58" ry="115.32" transform="translate(59.65 308.8) rotate(-89.07)"/></svg>
