<svg id="Layer_8" data-name="Layer 8" xmlns="http://www.w3.org/2000/svg" viewBox="0 0 464.13 72.81"><title>name</title><path d="M69.38,209a4.65,4.65,0,0,1,1.3,3.43v42.29a25.85,25.85,0,0,1-3.39,13.13,24.9,24.9,0,0,1-9.18,9.27,25.18,25.18,0,0,1-12.94,3.39,25.64,25.64,0,0,1-13-3.39,24.25,24.25,0,0,1-9.23-9.27,26.11,26.11,0,0,1-3.34-13.13,27.59,27.59,0,0,1,3.11-13.12,23.4,23.4,0,0,1,8.53-9.23A22.6,22.6,0,0,1,43.31,229a22.86,22.86,0,0,1,17.91,8.44v-25A4.53,4.53,0,0,1,62.56,209a5.12,5.12,0,0,1,6.82,0ZM53.56,269.89a15.86,15.86,0,0,0,5.89-6.26,18.62,18.62,0,0,0,2.14-8.91,18.33,18.33,0,0,0-2.14-8.85,16.39,16.39,0,0,0-22.68-6.22,16.42,16.42,0,0,0-5.93,6.22,17.92,17.92,0,0,0-2.18,8.85,18.2,18.2,0,0,0,2.18,8.91,16.25,16.25,0,0,0,5.93,6.26,16.66,16.66,0,0,0,16.79,0Z" transform="translate(-19.57 -207.7)"/><path d="M141.86,232.42a25,25,0,0,1,9.19,9.27,25.94,25.94,0,0,1,3.38,13.13V275.5a4.73,4.73,0,1,1-9.46,0v-3.43a23.36,23.36,0,0,1-30,5.1,23.47,23.47,0,0,1-8.53-9.23,27.68,27.68,0,0,1-3.11-13.12,26.22,26.22,0,0,1,3.34-13.13,24.45,24.45,0,0,1,9.23-9.27,25.66,25.66,0,0,1,13-3.39A25.15,25.15,0,0,1,141.86,232.42Zm-4.54,37.47a16.1,16.1,0,0,0,5.89-6.22,18.27,18.27,0,0,0,2.13-8.85,18.62,18.62,0,0,0-2.13-8.91,16.36,16.36,0,0,0-22.68-6.26,16.42,16.42,0,0,0-5.94,6.26,18.31,18.31,0,0,0-2.18,8.91,18,18,0,0,0,2.18,8.85,16.45,16.45,0,0,0,5.94,6.22,16.66,16.66,0,0,0,16.79,0Z" transform="translate(-19.57 -207.7)"/><path d="M223.81,231.72a19.65,19.65,0,0,1,8,8.12,26.79,26.79,0,0,1,2.87,12.84V275.5a4.73,4.73,0,1,1-9.46,0V252.68q0-7.5-4-11.36t-10.72-3.85a15.84,15.84,0,0,0-7.09,1.58,12.45,12.45,0,0,0-5,4.27,10.51,10.51,0,0,0-1.81,6V275.5a4.68,4.68,0,0,1-1.3,3.39,4.56,4.56,0,0,1-3.43,1.34,4.58,4.58,0,0,1-4.73-4.73V234.13a4.58,4.58,0,0,1,1.34-3.43,4.72,4.72,0,0,1,3.39-1.3,4.47,4.47,0,0,1,4.73,4.73v1a20.73,20.73,0,0,1,7.05-4.59,23.42,23.42,0,0,1,8.72-1.62A23.66,23.66,0,0,1,223.81,231.72Z" transform="translate(-19.57 -207.7)"/><path d="M270.23,219.34a6,6,0,1,1,4.31,1.81A5.91,5.91,0,0,1,270.23,219.34Zm.93,59.45a4.56,4.56,0,0,1-1.35-3.38V234.13a4.55,4.55,0,0,1,1.35-3.43,4.71,4.71,0,0,1,8.12,3.43v41.28a4.68,4.68,0,0,1-1.3,3.38,5,5,0,0,1-6.82,0Z" transform="translate(-19.57 -207.7)"/><path d="M359.78,256.9a4.19,4.19,0,0,1-3.06,1.16H321.48a16.3,16.3,0,0,0,5.89,10.48,18.82,18.82,0,0,0,17.71,3,17.15,17.15,0,0,0,5-2.5,4.83,4.83,0,0,1,3.07-1,4,4,0,0,1,2.78.93,4.05,4.05,0,0,1,1.67,3.15,3.36,3.36,0,0,1-1.49,2.78,25.57,25.57,0,0,1-7.83,4.08,28.32,28.32,0,0,1-22.59-1.71,23.85,23.85,0,0,1-9.41-9.14,25.93,25.93,0,0,1-3.39-13.26,27.43,27.43,0,0,1,3.2-13.31,23.11,23.11,0,0,1,8.91-9.19A25.43,25.43,0,0,1,337.89,229a23.26,23.26,0,0,1,12.34,3.16,20.85,20.85,0,0,1,8,8.81A29.11,29.11,0,0,1,361,254,3.85,3.85,0,0,1,359.78,256.9ZM326.9,240.72a16.65,16.65,0,0,0-5.33,9.92h30.89a16.48,16.48,0,0,0-4.64-9.92,13.64,13.64,0,0,0-9.93-3.71Q331.13,237,326.9,240.72Z" transform="translate(-19.57 -207.7)"/><path d="M396.47,278a14.18,14.18,0,0,1-5-6.12,21.56,21.56,0,0,1-1.76-8.86V212.34a4.64,4.64,0,1,1,9.28,0V263a11.08,11.08,0,0,0,1.3,5.66,3.8,3.8,0,0,0,3.33,2.22H406a3.89,3.89,0,0,1,3,1.3,4.85,4.85,0,0,1,1.16,3.34,4,4,0,0,1-1.77,3.34,7.4,7.4,0,0,1-4.54,1.3h-.19A12.49,12.49,0,0,1,396.47,278Z" transform="translate(-19.57 -207.7)"/><path d="M471.13,232.42a24.9,24.9,0,0,1,9.18,9.27,25.85,25.85,0,0,1,3.39,13.13V275.5a4.73,4.73,0,1,1-9.46,0v-3.43a23.36,23.36,0,0,1-30,5.1,23.47,23.47,0,0,1-8.53-9.23,27.68,27.68,0,0,1-3.11-13.12,26.22,26.22,0,0,1,3.34-13.13,24.45,24.45,0,0,1,9.23-9.27,25.66,25.66,0,0,1,13-3.39A25.15,25.15,0,0,1,471.13,232.42Zm-4.54,37.47a16.1,16.1,0,0,0,5.89-6.22,18.27,18.27,0,0,0,2.13-8.85,18.62,18.62,0,0,0-2.13-8.91,16.36,16.36,0,0,0-22.68-6.26,16.27,16.27,0,0,0-5.94,6.26,18.31,18.31,0,0,0-2.18,8.91,18,18,0,0,0,2.18,8.85,16.3,16.3,0,0,0,5.94,6.22,16.66,16.66,0,0,0,16.79,0Z" transform="translate(-19.57 -207.7)"/><path d="M69.38,209a4.65,4.65,0,0,1,1.3,3.43v42.29a25.85,25.85,0,0,1-3.39,13.13,24.9,24.9,0,0,1-9.18,9.27,25.18,25.18,0,0,1-12.94,3.39,25.64,25.64,0,0,1-13-3.39,24.25,24.25,0,0,1-9.23-9.27,26.11,26.11,0,0,1-3.34-13.13,27.59,27.59,0,0,1,3.11-13.12,23.4,23.4,0,0,1,8.53-9.23A22.6,22.6,0,0,1,43.31,229a22.86,22.86,0,0,1,17.91,8.44v-25A4.53,4.53,0,0,1,62.56,209a5.12,5.12,0,0,1,6.82,0ZM53.56,269.89a15.86,15.86,0,0,0,5.89-6.26,18.62,18.62,0,0,0,2.14-8.91,18.33,18.33,0,0,0-2.14-8.85,16.39,16.39,0,0,0-22.68-6.22,16.42,16.42,0,0,0-5.93,6.22,17.92,17.92,0,0,0-2.18,8.85,18.2,18.2,0,0,0,2.18,8.91,16.25,16.25,0,0,0,5.93,6.26,16.66,16.66,0,0,0,16.79,0Z" transform="translate(-19.57 -207.7)"/><path d="M141.86,232.42a25,25,0,0,1,9.19,9.27,25.94,25.94,0,0,1,3.38,13.13V275.5a4.73,4.73,0,1,1-9.46,0v-3.43a23.36,23.36,0,0,1-30,5.1,23.47,23.47,0,0,1-8.53-9.23,27.68,27.68,0,0,1-3.11-13.12,26.22,26.22,0,0,1,3.34-13.13,24.45,24.45,0,0,1,9.23-9.27,25.66,25.66,0,0,1,13-3.39A25.15,25.15,0,0,1,141.86,232.42Zm-4.54,37.47a16.1,16.1,0,0,0,5.89-6.22,18.27,18.27,0,0,0,2.13-8.85,18.62,18.62,0,0,0-2.13-8.91,16.36,16.36,0,0,0-22.68-6.26,16.42,16.42,0,0,0-5.94,6.26,18.31,18.31,0,0,0-2.18,8.91,18,18,0,0,0,2.18,8.85,16.45,16.45,0,0,0,5.94,6.22,16.66,16.66,0,0,0,16.79,0Z" transform="translate(-19.57 -207.7)"/><path d="M223.81,231.72a19.65,19.65,0,0,1,8,8.12,26.79,26.79,0,0,1,2.87,12.84V275.5a4.73,4.73,0,1,1-9.46,0V252.68q0-7.5-4-11.36t-10.72-3.85a15.84,15.84,0,0,0-7.09,1.58,12.45,12.45,0,0,0-5,4.27,10.51,10.51,0,0,0-1.81,6V275.5a4.68,4.68,0,0,1-1.3,3.39,4.56,4.56,0,0,1-3.43,1.34,4.58,4.58,0,0,1-4.73-4.73V234.13a4.58,4.58,0,0,1,1.34-3.43,4.72,4.72,0,0,1,3.39-1.3,4.47,4.47,0,0,1,4.73,4.73v1a20.73,20.73,0,0,1,7.05-4.59,23.42,23.42,0,0,1,8.72-1.62A23.66,23.66,0,0,1,223.81,231.72Z" transform="translate(-19.57 -207.7)"/><path d="M270.23,219.34a6,6,0,1,1,4.31,1.81A5.91,5.91,0,0,1,270.23,219.34Zm.93,59.45a4.56,4.56,0,0,1-1.35-3.38V234.13a4.55,4.55,0,0,1,1.35-3.43,4.71,4.71,0,0,1,8.12,3.43v41.28a4.68,4.68,0,0,1-1.3,3.38,5,5,0,0,1-6.82,0Z" transform="translate(-19.57 -207.7)"/><path d="M359.78,256.9a4.19,4.19,0,0,1-3.06,1.16H321.48a16.3,16.3,0,0,0,5.89,10.48,18.82,18.82,0,0,0,17.71,3,17.15,17.15,0,0,0,5-2.5,4.83,4.83,0,0,1,3.07-1,4,4,0,0,1,2.78.93,4.05,4.05,0,0,1,1.67,3.15,3.36,3.36,0,0,1-1.49,2.78,25.57,25.57,0,0,1-7.83,4.08,28.32,28.32,0,0,1-22.59-1.71,23.85,23.85,0,0,1-9.41-9.14,25.93,25.93,0,0,1-3.39-13.26,27.43,27.43,0,0,1,3.2-13.31,23.11,23.11,0,0,1,8.91-9.19A25.43,25.43,0,0,1,337.89,229a23.26,23.26,0,0,1,12.34,3.16,20.85,20.85,0,0,1,8,8.81A29.11,29.11,0,0,1,361,254,3.85,3.85,0,0,1,359.78,256.9ZM326.9,240.72a16.65,16.65,0,0,0-5.33,9.92h30.89a16.48,16.48,0,0,0-4.64-9.92,13.64,13.64,0,0,0-9.93-3.71Q331.13,237,326.9,240.72Z" transform="translate(-19.57 -207.7)"/><path d="M396.47,278a14.18,14.18,0,0,1-5-6.12,21.56,21.56,0,0,1-1.76-8.86V212.34a4.64,4.64,0,1,1,9.28,0V263a11.08,11.08,0,0,0,1.3,5.66,3.8,3.8,0,0,0,3.33,2.22H406a3.89,3.89,0,0,1,3,1.3,4.85,4.85,0,0,1,1.16,3.34,4,4,0,0,1-1.77,3.34,7.4,7.4,0,0,1-4.54,1.3h-.19A12.49,12.49,0,0,1,396.47,278Z" transform="translate(-19.57 -207.7)"/><path d="M471.13,232.42a24.9,24.9,0,0,1,9.18,9.27,25.85,25.85,0,0,1,3.39,13.13V275.5a4.73,4.73,0,1,1-9.46,0v-3.43a23.36,23.36,0,0,1-30,5.1,23.47,23.47,0,0,1-8.53-9.23,27.68,27.68,0,0,1-3.11-13.12,26.22,26.22,0,0,1,3.34-13.13,24.45,24.45,0,0,1,9.23-9.27,25.66,25.66,0,0,1,13-3.39A25.15,25.15,0,0,1,471.13,232.42Zm-4.54,37.47a16.1,16.1,0,0,0,5.89-6.22,18.27,18.27,0,0,0,2.13-8.85,18.62,18.62,0,0,0-2.13-8.91,16.36,16.36,0,0,0-22.68-6.26,16.27,16.27,0,0,0-5.94,6.26,18.31,18.31,0,0,0-2.18,8.91,18,18,0,0,0,2.18,8.85,16.3,16.3,0,0,0,5.94,6.22,16.66,16.66,0,0,0,16.79,0Z" transform="translate(-19.57 -207.7)"/></svg>